<svg width="25" height="25" viewBox="0 0 25 25" fill="none" xmlns="http://www.w3.org/2000/svg">
<path d="M22.7176 9.76404L21.3106 9.50023C21.1347 8.97262 20.9589 8.445 20.6071 7.91738L21.4865 6.77421C21.7503 6.42247 21.6624 5.98279 21.3985 5.63104L19.376 3.60851C19.1122 3.34471 18.5846 3.25677 18.2328 3.52058L17.0897 4.312C16.5621 4.04819 15.9465 3.78439 15.331 3.60851L15.0671 2.20154C14.9792 1.76186 14.6275 1.49805 14.1878 1.49805H11.2859C10.8462 1.49805 10.4945 1.84979 10.4065 2.20154L10.2307 3.60851C9.70304 3.69645 9.08749 3.96026 8.55987 4.312L7.50464 3.52058C7.15289 3.25677 6.71321 3.25677 6.36147 3.60851L4.33894 5.63104C4.07513 5.89485 3.98719 6.42247 4.251 6.77421L5.04243 7.82945C4.69068 8.35706 4.51481 8.97262 4.33894 9.58817L3.0199 9.76404C2.58021 9.85198 2.31641 10.2037 2.31641 10.6434V13.5453C2.31641 13.985 2.66815 14.3367 3.0199 14.4247L4.33894 14.6005C4.51481 15.2161 4.77862 15.7437 5.04243 16.3592L4.33894 17.4145C4.07513 17.7662 4.07513 18.2059 4.42687 18.5577L6.4494 20.5802C6.71321 20.844 7.24083 20.9319 7.59257 20.6681L8.64781 19.8767C9.17542 20.1405 9.70304 20.4043 10.2307 20.5802L10.4065 21.8992C10.4945 22.3389 10.8462 22.6027 11.2859 22.6027H14.1878C14.6275 22.6027 14.9792 22.251 15.0671 21.8992L15.243 20.5802C15.8586 20.4043 16.3862 20.1405 16.9138 19.8767L18.057 20.6681C18.4087 20.9319 18.9363 20.844 19.2001 20.5802L21.2227 18.5577C21.4865 18.2938 21.5744 17.7662 21.3106 17.4145L20.5192 16.2713C20.783 15.7437 21.0468 15.2161 21.2227 14.6885L22.6296 14.4247C23.0693 14.3367 23.3331 13.985 23.3331 13.5453V10.6434C23.4211 10.2037 23.0693 9.85198 22.7176 9.76404ZM17.969 16.1834C17.1776 15.2161 16.2103 14.5126 14.9792 14.0729C14.8033 13.985 14.6275 14.0729 14.5395 14.0729C14.0119 14.2488 13.4843 14.4247 12.9567 14.4247C12.4291 14.4247 11.8135 14.3367 11.3738 14.0729C11.198 13.985 11.0221 13.985 10.9341 14.0729C9.70304 14.5126 8.64781 15.2161 7.94432 16.1834C7.06496 15.0402 6.53734 13.6332 6.53734 12.1383C6.53734 8.53294 9.43923 5.54311 13.1325 5.54311C16.7379 5.54311 19.6398 8.445 19.6398 12.1383C19.376 13.6332 18.8484 15.0402 17.969 16.1834Z" fill="black"/>
<path d="M12.8687 7.74121C11.3738 7.74121 10.2306 8.97232 10.2306 10.3793C10.2306 11.8742 11.3738 13.0174 12.8687 13.0174C14.2757 13.0174 15.5068 11.8742 15.5068 10.3793C15.5068 8.88438 14.3636 7.74121 12.8687 7.74121Z" fill="black"/>
</svg>
