<svg width="11" height="17" viewBox="0 0 11 17" fill="none" xmlns="http://www.w3.org/2000/svg">
<path d="M1.13923 9.29586L8.23501 16.3915C8.39913 16.5558 8.61821 16.6462 8.85181 16.6462C9.08541 16.6462 9.30449 16.5558 9.46861 16.3915L9.99116 15.8691C10.3312 15.5287 10.3312 14.9754 9.99116 14.6355L4.03266 8.67699L9.99777 2.71188C10.1619 2.54764 10.2525 2.32868 10.2525 2.09521C10.2525 1.86148 10.1619 1.64253 9.99777 1.47816L9.47522 0.95586C9.31097 0.791613 9.09202 0.70113 8.85842 0.70113C8.62482 0.70113 8.40574 0.791613 8.24162 0.95586L1.13923 8.05799C0.974728 8.22275 0.884374 8.44274 0.884892 8.6766C0.884374 8.91137 0.974728 9.13123 1.13923 9.29586Z" fill="white"/>
</svg>
