<svg width="46" height="37" viewBox="0 0 46 37" fill="none" xmlns="http://www.w3.org/2000/svg">
<path d="M43.8592 6.1842C42.9559 5.23795 41.7086 4.6788 40.2892 4.6788H33.1494V4.59278C33.1494 3.5175 32.7192 2.48523 31.9881 1.79705C31.2569 1.06585 30.2676 0.635742 29.1923 0.635742H16.2889C15.1706 0.635742 14.1814 1.06585 13.4502 1.79705C12.719 2.52824 12.2889 3.5175 12.2889 4.59278V4.6788H5.19203C3.77266 4.6788 2.52533 5.23795 1.62209 6.1842C0.718857 7.08743 0.116699 8.37777 0.116699 9.75413V31.1738C0.116699 32.5931 0.675846 33.8405 1.62209 34.7437C2.52533 35.6469 3.81567 36.2491 5.19203 36.2491H40.2892C41.7086 36.2491 42.9559 35.6899 43.8592 34.7437C44.7624 33.8405 45.3646 32.5501 45.3646 31.1738V9.75413C45.3646 8.33476 44.8054 7.08743 43.8592 6.1842ZM43.128 31.1738H43.085C43.085 31.948 42.7839 32.6361 42.2678 33.1523C41.7516 33.6684 41.0634 33.9695 40.2892 33.9695H5.19203C4.41783 33.9695 3.72965 33.6684 3.21351 33.1523C2.69738 32.6361 2.3963 31.948 2.3963 31.1738V9.75413C2.3963 8.97993 2.69738 8.29175 3.21351 7.77561C3.72965 7.25948 4.41783 6.9584 5.19203 6.9584H13.4932C14.1384 6.9584 14.6545 6.44227 14.6545 5.7971V4.54977C14.6545 4.07664 14.8266 3.64653 15.1276 3.34545C15.4287 3.04437 15.8588 2.87233 16.332 2.87233H29.1923C29.6654 2.87233 30.0956 3.04437 30.3966 3.34545C30.6977 3.64653 30.8698 4.07664 30.8698 4.54977V5.7971C30.8698 6.44227 31.3859 6.9584 32.0311 6.9584H40.3322C41.1064 6.9584 41.7946 7.25948 42.3108 7.77561C42.8269 8.29175 43.128 8.97993 43.128 9.75413V31.1738Z" fill="#B8B8B8"/>
<path d="M22.7404 9.88086C19.8157 9.88086 17.149 11.0852 15.2565 12.9777C13.321 14.9132 12.1597 17.5369 12.1597 20.4616C12.1597 23.3864 13.364 26.0531 15.2565 27.9456C17.192 29.8811 19.8157 31.0424 22.7404 31.0424C25.6652 31.0424 28.3319 29.8381 30.2244 27.9456C32.1599 26.0101 33.3212 23.3864 33.3212 20.4616C33.3212 17.5369 32.1169 14.8702 30.2244 12.9777C28.3319 11.0852 25.6652 9.88086 22.7404 9.88086ZM28.59 26.3542C27.0846 27.8166 25.02 28.7628 22.7404 28.7628C20.4608 28.7628 18.3963 27.8166 16.8909 26.3542C15.3855 24.8488 14.4823 22.7842 14.4823 20.5046C14.4823 18.225 15.4285 16.1605 16.8909 14.6551C18.3963 13.1497 20.4608 12.2465 22.7404 12.2465C25.02 12.2465 27.0846 13.1927 28.59 14.6551C30.0954 16.1605 30.9986 18.225 30.9986 20.5046C31.0416 22.7842 30.0954 24.8488 28.59 26.3542Z" fill="#B8B8B8"/>
<path d="M38.0524 14.0545C39.2163 14.0545 40.1599 13.1109 40.1599 11.9469C40.1599 10.7829 39.2163 9.83936 38.0524 9.83936C36.8884 9.83936 35.9448 10.7829 35.9448 11.9469C35.9448 13.1109 36.8884 14.0545 38.0524 14.0545Z" fill="#B8B8B8"/>
</svg>
