<svg width="25" height="25" viewBox="0 0 25 25" fill="none" xmlns="http://www.w3.org/2000/svg">
<path d="M23.1398 12.9179L21.1897 21.535C21.151 21.7152 21.0507 21.8764 20.906 21.9907C20.7613 22.105 20.5813 22.1653 20.3969 22.1612H5.20814C5.0238 22.1653 4.84378 22.105 4.69909 21.9907C4.5544 21.8764 4.45409 21.7152 4.41541 21.535L2.5287 12.9179C2.49695 12.7723 2.50688 12.6207 2.55736 12.4805C2.60784 12.3403 2.69681 12.2171 2.81409 12.1252C2.93168 12.0329 3.07297 11.9758 3.22165 11.9603C3.37033 11.9449 3.52035 11.9718 3.65438 12.038L8.28395 14.2814L12.1208 7.49563C12.1899 7.37363 12.2902 7.27215 12.4114 7.20155C12.5325 7.13095 12.6702 7.09375 12.8105 7.09375C12.9507 7.09375 13.0884 7.13095 13.2096 7.20155C13.3307 7.27215 13.431 7.37363 13.5001 7.49563L17.337 14.2894L21.9983 12.0301C22.1333 11.9585 22.2861 11.9275 22.4383 11.9407C22.5905 11.954 22.7356 12.0109 22.8562 12.1047C22.9768 12.1985 23.0678 12.3252 23.1181 12.4695C23.1684 12.6137 23.1759 12.7695 23.1398 12.9179Z" fill="#00C24D"/>
</svg>
