<svg width="25" height="25" viewBox="0 0 25 25" fill="none" xmlns="http://www.w3.org/2000/svg">
<path fill-rule="evenodd" clip-rule="evenodd" d="M12.9194 3.60059C7.96074 3.60059 3.93524 7.62609 3.93524 12.5847C3.93524 17.5434 7.96074 21.5689 12.9194 21.5689C17.8781 21.5689 21.9036 17.5434 21.9036 12.5847C21.9036 7.62609 17.8781 3.60059 12.9194 3.60059ZM9.74919 16.7438L17.0785 9.41454C17.3121 9.18095 17.3121 8.80122 17.0785 8.56763C16.8449 8.33404 16.4652 8.33404 16.2316 8.56763L8.90229 15.8969C8.6687 16.1305 8.6687 16.5102 8.90229 16.7438C9.13587 16.9774 9.5156 16.9774 9.74919 16.7438ZM15.3697 12.7578C14.3778 12.7578 13.5729 13.5634 13.5729 14.5547C13.5729 15.5465 14.3778 16.3515 15.3697 16.3515C16.3615 16.3515 17.1665 15.5465 17.1665 14.5547C17.1665 13.5634 16.3615 12.7578 15.3697 12.7578ZM15.3697 13.9557C15.7003 13.9557 15.9686 14.2241 15.9686 14.5547C15.9686 14.8853 15.7003 15.1536 15.3697 15.1536C15.0391 15.1536 14.7707 14.8853 14.7707 14.5547C14.7707 14.2241 15.0391 13.9557 15.3697 13.9557ZM10.5781 9.16418C9.58628 9.16418 8.7813 9.96976 8.7813 10.961C8.7813 11.9529 9.58628 12.7578 10.5781 12.7578C11.57 12.7578 12.375 11.9529 12.375 10.961C12.375 9.96976 11.57 9.16418 10.5781 9.16418ZM10.5781 10.3621C10.9087 10.3621 11.1771 10.6304 11.1771 10.961C11.1771 11.2916 10.9087 11.56 10.5781 11.56C10.2475 11.56 9.97919 11.2916 9.97919 10.961C9.97919 10.6304 10.2475 10.3621 10.5781 10.3621Z" fill="#92AAB9"/>
</svg>
