<svg width="51" height="51" viewBox="0 0 51 51" fill="none" xmlns="http://www.w3.org/2000/svg">
<rect x="0.834351" y="0.150391" width="50" height="50" fill="#191919"/>
<path d="M18.9242 38.3393L11.9957 42.1185C11.5892 42.3402 11.2238 42.6127 10.8838 42.9098C14.9233 46.3157 20.1378 48.3705 25.8351 48.3705C31.4904 48.3705 36.6716 46.3464 40.6997 42.9869C40.3282 42.6732 39.9251 42.391 39.4783 42.1685L32.0591 38.4593C31.1005 37.98 30.495 37.0004 30.495 35.9287V33.0179C30.7036 32.7804 30.9419 32.4755 31.1969 32.1153C32.2081 30.687 32.973 29.1159 33.5031 27.4677C34.4547 27.1742 35.1557 26.2953 35.1557 25.2508V22.1437C35.1557 21.4602 34.8517 20.8495 34.3794 20.4219V15.9302C34.3794 15.9302 35.3021 8.94043 25.836 8.94043C16.37 8.94043 17.2926 15.9302 17.2926 15.9302V20.4219C16.8195 20.8495 16.5163 21.4602 16.5163 22.1437V25.2508C16.5163 26.0692 16.9465 26.7895 17.5906 27.2057C18.3669 30.5854 20.3998 33.0179 20.3998 33.0179V35.8569C20.3989 36.8909 19.8329 37.8433 18.9242 38.3393Z" fill="#E7ECED"/>
<path d="M26.232 1.93315C13.4099 1.71408 2.83715 11.9311 2.61808 24.7532C2.49366 32.0234 5.73401 38.5575 10.8933 42.9028C11.2307 42.6084 11.5926 42.3385 11.9948 42.1194L18.9232 38.3402C19.8319 37.8442 20.3979 36.8918 20.3979 35.856V33.017C20.3979 33.017 18.3642 30.5846 17.5887 27.2049C16.9455 26.7887 16.5144 26.0693 16.5144 25.25V22.1428C16.5144 21.4594 16.8185 20.8486 17.2908 20.421V15.9294C17.2908 15.9294 16.3681 8.93959 25.8342 8.93959C35.3002 8.93959 34.3775 15.9294 34.3775 15.9294V20.421C34.8507 20.8486 35.1539 21.4594 35.1539 22.1428V25.25C35.1539 26.2945 34.4529 27.1733 33.5013 27.4669C32.9712 29.1151 32.2062 30.6862 31.195 32.1145C30.94 32.4746 30.7017 32.7796 30.4932 33.017V35.9279C30.4932 36.9995 31.0986 37.9801 32.0572 38.4585L39.4764 42.1676C39.9215 42.3902 40.3237 42.6715 40.6944 42.9843C45.6977 38.8116 48.9302 32.5728 49.0502 25.547C49.2711 12.725 39.0549 2.15221 26.232 1.93315Z" fill="#556080"/>
</svg>
