<svg width="25" height="25" viewBox="0 0 25 25" fill="none" xmlns="http://www.w3.org/2000/svg">
<path d="M21.4909 7.02922C20.5966 5.4972 19.3836 4.2842 17.8515 3.38998C16.3192 2.49582 14.6464 2.04883 12.832 2.04883C11.0177 2.04883 9.34444 2.49582 7.81237 3.38998C6.28022 4.28406 5.06721 5.49706 4.17296 7.02922C3.27866 8.56147 2.83167 10.2347 2.83167 12.0489C2.83167 13.8631 3.27879 15.5361 4.17282 17.0684C5.06703 18.6005 6.28003 19.8135 7.81219 20.7078C9.34444 21.6019 11.0176 22.0489 12.8318 22.0489C14.646 22.0489 16.3193 21.6019 17.8515 20.7078C19.3836 19.8138 20.5965 18.6005 21.4907 17.0684C22.3847 15.5362 22.8317 13.863 22.8317 12.0489C22.8317 10.2345 22.3847 8.56124 21.4909 7.02922ZM14.4988 18.2989C14.4988 18.4203 14.4595 18.5202 14.3814 18.5982C14.3037 18.6763 14.2038 18.7153 14.0824 18.7153H11.5821C11.4606 18.7153 11.3607 18.6763 11.2826 18.5982C11.2044 18.5202 11.1654 18.4203 11.1654 18.2989V15.7986C11.1654 15.6772 11.2044 15.5773 11.2826 15.4993C11.3607 15.4214 11.4606 15.3824 11.5821 15.3824H14.0824C14.2038 15.3824 14.3037 15.4214 14.3814 15.4993C14.4595 15.5773 14.4988 15.6772 14.4988 15.7986V18.2989ZM17.6693 10.6035C17.5606 10.9247 17.4392 11.1874 17.3047 11.3913C17.1702 11.5953 16.9769 11.8037 16.7251 12.0163C16.4738 12.2289 16.274 12.3809 16.126 12.4722C15.9787 12.5632 15.7658 12.6872 15.4883 12.8433C15.2018 13.008 14.9655 13.223 14.7789 13.4879C14.5923 13.7526 14.499 13.9673 14.499 14.1321C14.499 14.2539 14.4596 14.3537 14.3816 14.4318C14.3037 14.5098 14.2038 14.5488 14.0824 14.5488H11.5822C11.4607 14.5488 11.3608 14.5098 11.2827 14.4318C11.2045 14.3537 11.1656 14.2539 11.1656 14.1321V13.6633C11.1656 13.0817 11.3933 12.5368 11.8491 12.0291C12.3049 11.5212 12.8062 11.1458 13.3532 10.9027C13.7696 10.7118 14.0648 10.5164 14.2384 10.3168C14.4123 10.1172 14.499 9.85218 14.499 9.52249C14.499 9.23594 14.3361 8.97991 14.0106 8.75406C13.685 8.52845 13.3141 8.41562 12.8973 8.41562C12.4458 8.41562 12.0727 8.51983 11.7775 8.72825C11.4909 8.93644 11.1178 9.33582 10.6576 9.92602C10.5795 10.0303 10.471 10.0825 10.3321 10.0825C10.2279 10.0825 10.1454 10.0565 10.0847 10.0046L8.36604 8.70239C8.16642 8.5461 8.13171 8.3639 8.26178 8.15552C9.37303 6.30653 10.9832 5.38204 13.0925 5.38204C13.8479 5.38204 14.5859 5.56004 15.3063 5.916C16.0267 6.27178 16.628 6.77532 17.1099 7.42645C17.5912 8.07735 17.8325 8.78494 17.8325 9.54885C17.8319 9.93076 17.7774 10.2822 17.6693 10.6035Z" fill="#FFE922"/>
</svg>
