<svg width="23" height="20" viewBox="0 0 23 20" fill="none" xmlns="http://www.w3.org/2000/svg">
<path fill-rule="evenodd" clip-rule="evenodd" d="M17.3281 1.93497C17.3281 1.49757 17.0608 1.10421 16.6535 0.943059C16.2461 0.781912 15.7817 0.886007 15.4824 1.2053C13.5786 3.23615 10.9192 4.38821 8.13668 4.38821C6.92857 4.38821 5.66242 4.38821 4.56642 4.38821C3.57051 4.38821 2.61664 4.78357 1.91199 5.48721C1.20835 6.19185 0.812988 7.14572 0.812988 8.14163V9.14255C0.812988 10.1385 1.20835 11.0923 1.91199 11.797C2.61664 12.5006 3.57051 12.896 4.56642 12.896H8.13668C10.9192 12.896 13.5786 14.048 15.4824 16.0789C15.7817 16.3982 16.2461 16.5023 16.6535 16.3411C17.0608 16.18 17.3281 15.7866 17.3281 15.3492C17.3281 12.7468 17.3281 4.53734 17.3281 1.93497Z" fill="#FFE922"/>
<path fill-rule="evenodd" clip-rule="evenodd" d="M21.5821 7.8916H20.0808C19.6664 7.8916 19.3301 8.22791 19.3301 8.64229C19.3301 9.05667 19.6664 9.39297 20.0808 9.39297H21.5821C21.9965 9.39297 22.3328 9.05667 22.3328 8.64229C22.3328 8.22791 21.9965 7.8916 21.5821 7.8916Z" fill="#FFE922"/>
<path fill-rule="evenodd" clip-rule="evenodd" d="M18.7685 12.6454L19.8305 13.7074C20.1238 13.9997 20.5992 13.9997 20.8925 13.7074C21.1847 13.4141 21.1847 12.9387 20.8925 12.6454L19.8305 11.5835C19.5372 11.2912 19.0618 11.2912 18.7685 11.5835C18.4762 11.8767 18.4762 12.3522 18.7685 12.6454Z" fill="#FFE922"/>
<path fill-rule="evenodd" clip-rule="evenodd" d="M19.8305 5.70056L20.8925 4.63859C21.1847 4.34532 21.1847 3.86989 20.8925 3.57662C20.5992 3.28436 20.1238 3.28436 19.8305 3.57662L18.7685 4.63859C18.4762 4.93186 18.4762 5.40729 18.7685 5.70056C19.0618 5.99283 19.5372 5.99283 19.8305 5.70056Z" fill="#FFE922"/>
<path fill-rule="evenodd" clip-rule="evenodd" d="M4.01172 13.8652L4.68834 17.953C4.82746 18.7987 5.55913 19.4193 6.41591 19.4193H8.76106C9.19445 19.4193 9.59782 19.1951 9.82503 18.8258C10.0532 18.4574 10.0743 17.996 9.88008 17.6087L9.29154 16.4306C9.28253 16.4136 9.27653 16.3965 9.27152 16.3785L8.66297 13.9123C8.48781 13.9023 4.19489 13.8863 4.01172 13.8652Z" fill="#FFE922"/>
</svg>
