<svg width="25" height="25" viewBox="0 0 25 25" fill="none" xmlns="http://www.w3.org/2000/svg">
<path d="M17.3271 11.5213L10.2314 4.42563C10.0672 4.26138 9.84816 4.1709 9.61456 4.1709C9.38096 4.1709 9.16188 4.26138 8.99776 4.42563L8.47521 4.94805C8.13518 5.28847 8.13518 5.84175 8.47521 6.18165L14.4337 12.1401L8.4686 18.1053C8.30448 18.2695 8.21387 18.4885 8.21387 18.7219C8.21387 18.9557 8.30448 19.1746 8.4686 19.339L8.99115 19.8613C9.1554 20.0255 9.37435 20.116 9.60795 20.116C9.84155 20.116 10.0606 20.0255 10.2247 19.8613L17.3271 12.7592C17.4916 12.5944 17.582 12.3744 17.5815 12.1405C17.582 11.9058 17.4916 11.6859 17.3271 11.5213Z" fill="white"/>
</svg>
