<svg width="17" height="10" viewBox="0 0 17 10" fill="none" xmlns="http://www.w3.org/2000/svg">
<path d="M9.55563 9.68041L16.6513 2.58463C16.8155 2.42052 16.906 2.20143 16.906 1.96783C16.906 1.73423 16.8155 1.51515 16.6513 1.35104L16.1289 0.828481C15.7884 0.488451 15.2352 0.488451 14.8953 0.828481L8.93676 6.78698L2.97165 0.82187C2.8074 0.657753 2.58845 0.567139 2.35498 0.567139C2.12125 0.567139 1.9023 0.657753 1.73792 0.82187L1.21563 1.34442C1.05138 1.50867 0.960896 1.72762 0.960896 1.96122C0.960896 2.19482 1.05138 2.4139 1.21563 2.57802L8.31775 9.68041C8.48252 9.84491 8.70251 9.93527 8.93637 9.93475C9.17113 9.93527 9.39099 9.84491 9.55563 9.68041Z" fill="white"/>
</svg>
