<svg width="18" height="17" viewBox="0 0 18 17" fill="none" xmlns="http://www.w3.org/2000/svg">
<path d="M15.5554 0.599609H13.9728V2.18212C13.9728 2.49862 13.7091 2.70962 13.4453 2.70962C13.1816 2.70962 12.9178 2.49862 12.9178 2.18212V0.599609H4.47778V2.18212C4.47778 2.49862 4.21402 2.70962 3.95027 2.70962C3.68652 2.70962 3.42277 2.49862 3.42277 2.18212V0.599609H1.84026C1.049 0.599609 0.46875 1.28536 0.46875 2.18212V4.08113H17.3489V2.18212C17.3489 1.28536 16.3994 0.599609 15.5554 0.599609ZM0.46875 5.18889V14.8422C0.46875 15.7917 1.049 16.4247 1.89301 16.4247H15.6081C16.4521 16.4247 17.4016 15.739 17.4016 14.8422V5.18889H0.46875ZM5.16353 14.0509H3.89752C3.68652 14.0509 3.47552 13.8927 3.47552 13.6289V12.3102C3.47552 12.0992 3.63377 11.8882 3.89752 11.8882H5.21628C5.42728 11.8882 5.63828 12.0464 5.63828 12.3102V13.6289C5.58553 13.8927 5.42728 14.0509 5.16353 14.0509ZM5.16353 9.30342H3.89752C3.68652 9.30342 3.47552 9.14517 3.47552 8.88141V7.56266C3.47552 7.35165 3.63377 7.14065 3.89752 7.14065H5.21628C5.42728 7.14065 5.63828 7.2989 5.63828 7.56266V8.88141C5.58553 9.14517 5.42728 9.30342 5.16353 9.30342ZM9.38356 14.0509H8.0648C7.8538 14.0509 7.6428 13.8927 7.6428 13.6289V12.3102C7.6428 12.0992 7.80105 11.8882 8.0648 11.8882H9.38356C9.59456 11.8882 9.80556 12.0464 9.80556 12.3102V13.6289C9.80556 13.8927 9.64731 14.0509 9.38356 14.0509ZM9.38356 9.30342H8.0648C7.8538 9.30342 7.6428 9.14517 7.6428 8.88141V7.56266C7.6428 7.35165 7.80105 7.14065 8.0648 7.14065H9.38356C9.59456 7.14065 9.80556 7.2989 9.80556 7.56266V8.88141C9.80556 9.14517 9.64731 9.30342 9.38356 9.30342ZM13.6036 14.0509H12.2848C12.0738 14.0509 11.8628 13.8927 11.8628 13.6289V12.3102C11.8628 12.0992 12.0211 11.8882 12.2848 11.8882H13.6036C13.8146 11.8882 14.0256 12.0464 14.0256 12.3102V13.6289C14.0256 13.8927 13.8673 14.0509 13.6036 14.0509ZM13.6036 9.30342H12.2848C12.0738 9.30342 11.8628 9.14517 11.8628 8.88141V7.56266C11.8628 7.35165 12.0211 7.14065 12.2848 7.14065H13.6036C13.8146 7.14065 14.0256 7.2989 14.0256 7.56266V8.88141C14.0256 9.14517 13.8673 9.30342 13.6036 9.30342Z" fill="#FFE922"/>
</svg>
