<svg width="21" height="21" viewBox="0 0 21 21" fill="none" xmlns="http://www.w3.org/2000/svg">
<path d="M10.5728 0.0361328C5.00334 0.0361328 0.464844 4.56657 0.464844 10.144C0.464844 15.7215 4.99528 20.252 10.5728 20.252C16.1502 20.252 20.6807 15.7215 20.6807 10.144C20.6807 4.56657 16.1422 0.0361328 10.5728 0.0361328ZM13.9595 13.8489C13.742 14.2597 13.444 14.602 13.0856 14.8758C12.7232 15.1416 12.3205 15.3389 11.8695 15.4759C11.7446 15.5121 11.6158 15.5484 11.4869 15.5685V16.1766C11.4869 16.684 11.0761 17.0947 10.5687 17.0947C10.0613 17.0947 9.6425 16.684 9.6425 16.1685V15.6128C9.36061 15.5685 9.07872 15.5121 8.8089 15.4316C8.2733 15.2705 7.81019 15.0047 7.39138 14.7067C7.21016 14.5819 6.97257 14.3 6.97257 14.3C6.87994 14.2073 6.75511 14.0543 6.75511 13.7281C6.75511 13.257 7.13768 12.8663 7.60079 12.8744C7.91087 12.8744 8.20887 13.1281 8.20887 13.1281C8.5109 13.3737 8.68004 13.5268 8.98207 13.6556C9.42504 13.853 9.93648 13.9456 10.5003 13.9456C10.8466 13.9456 11.1728 13.8812 11.4788 13.7563C11.7688 13.6315 12.0064 13.4583 12.1957 13.2368C12.3688 13.0194 12.4574 12.7576 12.4574 12.4395C12.4574 12.0287 12.3044 11.6743 12.0024 11.3481C11.6923 11.0219 11.1647 10.8206 10.4238 10.732C9.71499 10.6595 9.07872 10.4783 8.54312 10.1964C7.99947 9.9145 7.56454 9.53596 7.27057 9.0809C6.97257 8.62584 6.82357 8.0983 6.82357 7.5184C6.82357 6.89018 7.00478 6.33848 7.35111 5.88342C7.69744 5.44044 8.16055 5.09411 8.74044 4.86457C9.03039 4.74779 9.32839 4.65517 9.64653 4.59879V3.98265C9.64653 3.47524 10.0573 3.06448 10.5647 3.06448C11.0721 3.06448 11.4909 3.47524 11.4909 3.9907V4.58268C11.7205 4.61892 11.9339 4.6753 12.1272 4.74779C12.5621 4.90887 12.9366 5.13841 13.2467 5.42836C13.4199 5.59347 13.581 5.77469 13.7259 5.97201C13.7461 6.0002 13.7783 6.02839 13.7984 6.06061C13.891 6.18947 13.9434 6.35861 13.9434 6.53983C13.9434 7.01099 13.4722 7.34927 13.0897 7.38551C12.7272 7.42175 12.389 7.01099 12.389 7.01099C12.2359 6.81367 12.0628 6.64856 11.8614 6.51164C11.5594 6.31029 11.1325 6.20156 10.5889 6.1935C10.009 6.18545 9.53377 6.30223 9.15523 6.54788C8.8089 6.7734 8.63977 7.09154 8.63977 7.53854C8.63977 7.76808 8.69212 8.00165 8.80085 8.21911C8.90153 8.42046 9.10288 8.60973 9.40088 8.77484C9.71096 8.94801 10.1902 9.07285 10.8104 9.14533C11.8534 9.24601 12.691 9.58026 13.3192 10.136C13.9635 10.6998 14.2897 11.4689 14.2897 12.4153C14.2857 12.959 14.177 13.4382 13.9595 13.8489Z" fill="#FFE922"/>
</svg>
