<svg width="13" height="13" viewBox="0 0 13 13" fill="none" xmlns="http://www.w3.org/2000/svg">
<path d="M10.2471 6.44818C9.96099 6.44818 9.72976 6.67997 9.72976 6.96547V11.1041C9.72976 11.3891 9.49797 11.6214 9.21247 11.6214H1.96993C1.68434 11.6214 1.45264 11.3891 1.45264 11.1041V3.86154C1.45264 3.57651 1.68434 3.34425 1.96993 3.34425H6.10854C6.39461 3.34425 6.62583 3.11245 6.62583 2.82696C6.62583 2.54136 6.39461 2.30957 6.10854 2.30957H1.96993C1.11429 2.30957 0.417969 3.00589 0.417969 3.86154V11.1041C0.417969 11.9597 1.11429 12.656 1.96993 12.656H9.21247C10.0681 12.656 10.7644 11.9597 10.7644 11.1041V6.96547C10.7644 6.6794 10.5331 6.44818 10.2471 6.44818Z" fill="white"/>
<path d="M5.26877 5.97708C5.23258 6.01326 5.20824 6.0593 5.19791 6.10893L4.83218 7.93825C4.81513 8.02303 4.84203 8.11046 4.90304 8.17203C4.9522 8.22119 5.01841 8.24753 5.08623 8.24753C5.10272 8.24753 5.11986 8.24601 5.13691 8.24241L6.96566 7.87668C7.01634 7.86626 7.06238 7.84201 7.09809 7.80573L11.1911 3.71269L9.36238 1.88403L5.26877 5.97708Z" fill="white"/>
<path d="M12.4553 0.619029C11.951 0.114621 11.1305 0.114621 10.6266 0.619029L9.91064 1.33496L11.7394 3.16371L12.4553 2.44768C12.6995 2.20405 12.834 1.87915 12.834 1.53359C12.834 1.18804 12.6995 0.863134 12.4553 0.619029Z" fill="white"/>
</svg>
