<svg width="22" height="22" viewBox="0 0 22 22" fill="none" xmlns="http://www.w3.org/2000/svg">
<path d="M20.9729 18.7206L16.0388 13.7861C16.8771 12.4515 17.3637 10.874 17.3637 9.18104C17.3637 4.39148 13.4809 0.509277 8.69154 0.509277C3.90216 0.509277 0.0197754 4.39148 0.0197754 9.18104C0.0197754 13.9708 3.90198 17.8526 8.69154 17.8526C10.5339 17.8526 12.2404 17.2766 13.6446 16.2979L18.52 21.1736C18.8588 21.512 19.3029 21.6806 19.7464 21.6806C20.1905 21.6806 20.6341 21.512 20.9734 21.1736C21.6504 20.4959 21.6504 19.3981 20.9729 18.7206ZM8.69154 15.0431C5.45435 15.0431 2.82984 12.4188 2.82984 9.1814C2.82984 5.94403 5.45435 3.31952 8.69154 3.31952C11.9289 3.31952 14.5532 5.94403 14.5532 9.1814C14.5532 12.4188 11.9289 15.0431 8.69154 15.0431Z" fill="#FFE922"/>
</svg>
