<svg width="25" height="25" viewBox="0 0 25 25" fill="none" xmlns="http://www.w3.org/2000/svg">
<path d="M12.0328 1.91943C8.21016 1.91943 5.09937 5.0518 5.09937 8.90293C5.09937 14.3749 11.3811 20.0249 11.6484 20.2622C11.7585 20.36 11.8957 20.4086 12.0328 20.4086C12.1699 20.4086 12.307 20.36 12.4172 20.263C12.6845 20.0249 18.9662 14.3749 18.9662 8.90293C18.9662 5.0518 15.8554 1.91943 12.0328 1.91943ZM12.0328 12.7048C9.90885 12.7048 8.18089 10.9768 8.18089 8.85286C8.18089 6.72892 9.90885 5.00096 12.0328 5.00096C14.1567 5.00096 15.8847 6.72892 15.8847 8.85286C15.8847 10.9768 14.1567 12.7048 12.0328 12.7048Z" fill="#FFE922"/>
<ellipse cx="12.0328" cy="22.5681" rx="2.74866" ry="0.895758" fill="#FFE922"/>
</svg>
