<svg width="23" height="22" viewBox="0 0 23 22" fill="none" xmlns="http://www.w3.org/2000/svg">
<path d="M22.4406 10.8271L21.1609 8.61042V6.05114C21.1609 5.82464 21.0401 5.6153 20.8439 5.50207L18.6273 4.22246L17.3477 2.00582C17.2344 1.80966 17.0251 1.68883 16.7986 1.68883H14.2393L12.0226 0.409124C11.8265 0.295938 11.5848 0.295896 11.3886 0.409124L9.17196 1.68879H6.61268C6.38618 1.68879 6.17684 1.80962 6.06361 2.00582L4.78404 4.22246L2.56736 5.50207C2.37116 5.6153 2.25033 5.8246 2.25033 6.05114V8.61042L0.970663 10.8271C0.857435 11.0233 0.857435 11.2649 0.970663 11.461L2.25028 13.6778V16.237C2.25028 16.4635 2.37112 16.6729 2.56731 16.7861L4.78399 18.0657L6.06361 20.2824C6.17684 20.4786 6.38614 20.5994 6.61268 20.5994H9.172L11.3887 21.8791C11.4867 21.9357 11.5962 21.964 11.7057 21.964C11.8151 21.964 11.9246 21.9357 12.0226 21.8791L14.2393 20.5994H16.7986C17.0251 20.5994 17.2344 20.4786 17.3476 20.2824L18.6272 18.0658L20.8439 16.7861C21.0401 16.6729 21.1609 16.4636 21.1609 16.2371V13.6778L22.4406 11.4611C22.5538 11.2649 22.5538 11.0233 22.4406 10.8271ZM8.60476 13.1813C8.60476 13.4606 8.42188 13.707 8.15451 13.788C7.88511 13.8695 7.5972 13.7637 7.44327 13.5329L5.88851 11.2008V13.1813C5.88851 13.5314 5.60466 13.8152 5.25453 13.8152C4.90441 13.8152 4.62055 13.5314 4.62055 13.1813V9.10691C4.62055 8.82754 4.80344 8.58113 5.07081 8.50015C5.33822 8.41926 5.62706 8.52281 5.78204 8.75527L7.33681 11.0874V9.10691C7.33681 8.75679 7.62066 8.47293 7.97079 8.47293C8.32091 8.47293 8.60476 8.75679 8.60476 9.10691V13.1813ZM11.3661 10.5101C11.7162 10.5101 12.0001 10.794 12.0001 11.1441C12.0001 11.4942 11.7162 11.7781 11.3661 11.7781H10.642V12.5473H12.0452C12.3953 12.5473 12.6792 12.8311 12.6792 13.1813C12.6792 13.5314 12.3953 13.8152 12.0452 13.8152H10.008C9.65788 13.8152 9.37403 13.5314 9.37403 13.1813V9.10691C9.37403 8.75679 9.65788 8.47293 10.008 8.47293H12.0452C12.3953 8.47293 12.6792 8.75679 12.6792 9.10691C12.6792 9.45704 12.3953 9.74089 12.0452 9.74089H10.642V10.5101H11.3661ZM19.1113 9.26067L18.0927 13.335C18.0243 13.6085 17.7836 13.804 17.502 13.8148C17.4938 13.8151 17.4856 13.8153 17.4774 13.8153C17.2056 13.8153 16.9627 13.6415 16.8762 13.3818L16.1195 11.1117L15.3628 13.3818C15.2737 13.6492 15.0187 13.8249 14.7371 13.8148C14.4554 13.804 14.2147 13.6085 14.1463 13.335L13.1277 9.26067C13.0428 8.92099 13.2493 8.57678 13.589 8.49191C13.9288 8.40683 14.2729 8.61347 14.3578 8.95319L14.8483 10.9154L15.518 8.90649C15.6043 8.64762 15.8466 8.47298 16.1194 8.47298C16.3923 8.47298 16.6346 8.64762 16.7209 8.90649L17.3905 10.9154L17.881 8.95319C17.966 8.61351 18.3102 8.40692 18.6498 8.49191C18.9896 8.57678 19.1962 8.92094 19.1113 9.26067Z" fill="#FFE922"/>
</svg>
