<svg width="101" height="101" viewBox="0 0 101 101" fill="none" xmlns="http://www.w3.org/2000/svg">
<path d="M99.7853 48.6979L93.8719 38.4541V26.6274C93.8719 25.5807 93.3135 24.6133 92.4068 24.0901L82.1635 18.1768L76.2504 7.93347C75.727 7.02702 74.7598 6.46862 73.7131 6.46862H61.8861L51.6424 0.554956C50.7361 0.0319093 49.6195 0.031714 48.7129 0.554956L38.4694 6.46843H26.6426C25.5959 6.46843 24.6285 7.02683 24.1053 7.93347L18.1922 18.1768L7.94868 24.0901C7.04204 24.6133 6.48364 25.5805 6.48364 26.6274V38.4541L0.570166 48.6979C0.0469239 49.6043 0.0469239 50.7207 0.570166 51.6272L6.48344 61.8709V73.6977C6.48344 74.7444 7.04184 75.7117 7.94848 76.235L18.192 82.1483L24.1053 92.3916C24.6285 93.2982 25.5957 93.8566 26.6426 93.8566H38.4696L48.7131 99.7701C49.1662 100.032 49.6721 100.162 50.1779 100.162C50.6838 100.162 51.1895 100.032 51.6426 99.7701L61.8861 93.8566H73.7129C74.7596 93.8566 75.727 93.2982 76.2502 92.3918L82.1633 82.1485L92.4066 76.2352C93.3133 75.7119 93.8717 74.7447 93.8717 73.6979V61.8711L99.7851 51.6274C100.309 50.7207 100.309 49.6043 99.7853 48.6979ZM35.8483 59.5766C35.8483 60.8676 35.0031 62.0063 33.7676 62.3805C32.5227 62.7571 31.1922 62.2682 30.4809 61.2016L23.2961 50.4244V59.5766C23.2961 61.1946 21.9844 62.5063 20.3664 62.5063C18.7485 62.5063 17.4368 61.1946 17.4368 59.5766V40.7485C17.4368 39.4575 18.2819 38.3188 19.5174 37.9446C20.7532 37.5707 22.0879 38.0493 22.8041 39.1235L29.9889 49.9006V40.7485C29.9889 39.1305 31.3006 37.8188 32.9186 37.8188C34.5365 37.8188 35.8483 39.1305 35.8483 40.7485V59.5766ZM48.6088 47.2328C50.2268 47.2328 51.5385 48.5446 51.5385 50.1625C51.5385 51.7805 50.2268 53.0922 48.6088 53.0922H45.2625V56.6469H51.7469C53.3649 56.6469 54.6766 57.9586 54.6766 59.5766C54.6766 61.1946 53.3649 62.5063 51.7469 62.5063H42.3328C40.7149 62.5063 39.4031 61.1946 39.4031 59.5766V40.7485C39.4031 39.1305 40.7149 37.8188 42.3328 37.8188H51.7469C53.3649 37.8188 54.6766 39.1305 54.6766 40.7485C54.6766 42.3664 53.3649 43.6782 51.7469 43.6782H45.2625V47.2328H48.6088ZM84.4002 41.459L79.6932 60.2871C79.3771 61.5508 78.2648 62.4543 76.9633 62.5043C76.9256 62.5057 76.8875 62.5065 76.85 62.5065C75.5938 62.5067 74.4715 61.7032 74.0715 60.5032L70.5748 50.0129L67.0781 60.5032C66.6662 61.7389 65.4877 62.551 64.1863 62.5043C62.8848 62.4543 61.7725 61.5508 61.4565 60.2871L56.7494 41.459C56.357 39.8893 57.3113 38.2987 58.8811 37.9065C60.4512 37.5133 62.0414 38.4682 62.4338 40.0381L64.7006 49.1059L67.7951 39.8223C68.1939 38.626 69.3135 37.819 70.5744 37.819C71.8354 37.819 72.9549 38.626 73.3537 39.8223L76.4482 49.1059L78.715 40.0381C79.1076 38.4684 80.6982 37.5137 82.2678 37.9065C83.8381 38.2987 84.7926 39.8891 84.4002 41.459Z" fill="#2D2D2D"/>
</svg>
