<svg width="26" height="26" viewBox="0 0 26 26" fill="none" xmlns="http://www.w3.org/2000/svg">
<path d="M22.2672 5.3943C17.5802 0.708722 9.98221 0.709847 5.29664 5.39687C0.611065 10.0839 0.61219 17.6819 5.29922 22.3674C9.98625 27.053 17.5842 27.0519 22.2698 22.3649C24.5201 20.1139 25.7839 17.0611 25.7832 13.8783C25.7825 10.6959 24.5178 7.6442 22.2672 5.3943ZM19.9568 18.5967C19.9563 18.5972 19.9558 18.5978 19.9552 18.5983V18.5943L19.3472 19.1983C18.5608 19.9946 17.4156 20.3222 16.3272 20.0623C15.2305 19.7688 14.188 19.3015 13.2392 18.6783C12.3577 18.1149 11.5407 17.4563 10.8032 16.7143C10.1246 16.0407 9.51492 15.301 8.98317 14.5063C8.40154 13.6512 7.94118 12.7197 7.61517 11.7383C7.24144 10.5854 7.55114 9.32026 8.41518 8.47033L9.12717 7.75834C9.32512 7.5595 9.64678 7.55879 9.84557 7.75675C9.84609 7.75726 9.84665 7.75778 9.84717 7.75834L12.0952 10.0063C12.294 10.2043 12.2947 10.5259 12.0967 10.7247C12.0962 10.7252 12.0957 10.7258 12.0952 10.7263L10.7752 12.0463C10.3964 12.4209 10.3488 13.0163 10.6632 13.4463C11.1406 14.1016 11.6689 14.7181 12.2432 15.2904C12.8834 15.9334 13.5795 16.5183 14.3232 17.0384C14.7529 17.3381 15.3354 17.2876 15.7071 16.9184L16.9831 15.6224C17.1811 15.4235 17.5027 15.4228 17.7015 15.6208C17.7021 15.6213 17.7026 15.6218 17.7031 15.6224L19.9551 17.8784C20.154 18.0763 20.1547 18.3979 19.9568 18.5967Z" fill="#92AAB9"/>
</svg>
