<svg width="25" height="25" viewBox="0 0 25 25" fill="none" xmlns="http://www.w3.org/2000/svg">
<path d="M12.7856 24.9441C19.4146 24.9441 24.7856 19.5731 24.7856 12.9441C24.7856 6.31509 19.4146 0.944092 12.7856 0.944092C6.15664 0.944092 0.785645 6.31509 0.785645 12.9441C0.785645 19.5731 6.15664 24.9441 12.7856 24.9441ZM6.27664 12.6841L17.8466 8.22309C18.3836 8.02909 18.8526 8.35409 18.6786 9.16609L18.6796 9.16509L16.7096 18.4461C16.5636 19.1041 16.1726 19.2641 15.6256 18.9541L12.6256 16.7431L11.1786 18.1371C11.0186 18.2971 10.8836 18.4321 10.5736 18.4321L10.7866 15.3791L16.3466 10.3561C16.5886 10.1431 16.2926 10.0231 15.9736 10.2351L9.10264 14.5611L6.14064 13.6371C5.49764 13.4331 5.48364 12.9941 6.27664 12.6841Z" fill="#92AAB9"/>
</svg>
