<svg width="25" height="25" viewBox="0 0 25 25" fill="none" xmlns="http://www.w3.org/2000/svg">
<path d="M19.9884 4.68444C15.6765 0.373806 8.68647 0.374841 4.37584 4.68681C0.0652125 8.99878 0.0662475 15.9887 4.37822 20.2994C8.69018 24.61 15.6802 24.609 19.9908 20.297C22.061 18.2261 23.2237 15.4177 23.2231 12.4895C23.2225 9.56185 22.0589 6.7543 19.9884 4.68444ZM17.8629 16.8304C17.8624 16.8309 17.8619 16.8314 17.8614 16.8319V16.8282L17.302 17.3838C16.5786 18.1164 15.5251 18.4178 14.5237 18.1787C13.5148 17.9087 12.5557 17.4788 11.6828 16.9055C10.8718 16.3872 10.1203 15.7813 9.44175 15.0986C8.81744 14.4789 8.25657 13.7984 7.76737 13.0673C7.23229 12.2806 6.80877 11.4237 6.50884 10.5208C6.16501 9.46012 6.44993 8.29624 7.24484 7.51432L7.89985 6.85931C8.08196 6.67638 8.37788 6.67573 8.56077 6.85784C8.56124 6.85832 8.56176 6.85879 8.56223 6.85931L10.6303 8.92741C10.8133 9.10952 10.8139 9.40544 10.6318 9.58832C10.6313 9.5888 10.6308 9.58927 10.6303 9.58979L9.41596 10.8042C9.06752 11.1488 9.0237 11.6965 9.31294 12.0921C9.75215 12.6949 10.2382 13.2621 10.7665 13.7886C11.3555 14.3802 11.9959 14.9183 12.6801 15.3967C13.0754 15.6725 13.6113 15.626 13.9533 15.2863L15.1272 14.094C15.3093 13.9111 15.6052 13.9105 15.7881 14.0926C15.7886 14.0931 15.789 14.0935 15.7896 14.094L17.8614 16.1695C18.0443 16.3516 18.045 16.6475 17.8629 16.8304Z" fill="#FFE922"/>
</svg>
