<svg width="25" height="25" viewBox="0 0 25 25" fill="none" xmlns="http://www.w3.org/2000/svg">
<path fill-rule="evenodd" clip-rule="evenodd" d="M1.62646 11.8104C1.62646 5.97264 6.35887 1.24023 12.1966 1.24023C18.0343 1.24023 22.7667 5.97264 22.7667 11.8104C22.7667 17.648 18.0343 22.3805 12.1966 22.3805C6.35887 22.3805 1.62646 17.648 1.62646 11.8104ZM12.1965 5.46829C9.86141 5.46829 7.96845 7.36125 7.96845 9.69634C7.96845 12.0314 9.86141 13.9244 12.1965 13.9244C14.5315 13.9244 16.4245 12.0314 16.4245 9.69634C16.4245 7.36125 14.5315 5.46829 12.1965 5.46829ZM17.5995 16.0357C18.4005 16.5515 18.3614 17.6758 17.632 18.2886C16.1622 19.523 14.2663 20.2665 12.1967 20.2665C10.1408 20.2665 8.25621 19.5328 6.79057 18.3129C6.05462 17.7004 6.01563 16.5703 6.82011 16.0511C7.07055 15.8895 7.34328 15.7478 7.63927 15.6259C8.83018 15.1349 10.3513 14.9814 12.1966 14.9814C14.0512 14.9814 15.5809 15.1251 16.7749 15.6107C17.0732 15.7321 17.3478 15.8736 17.5995 16.0357Z" fill="#FFE922"/>
</svg>
