<svg width="25" height="25" viewBox="0 0 25 25" fill="none" xmlns="http://www.w3.org/2000/svg">
<path d="M20.0652 0.904297C17.9995 0.904297 16.3188 2.58493 16.3188 4.65064C16.3188 6.44248 18.9736 10.069 19.5956 10.8945C19.5954 11.1611 19.5956 11.4229 19.5892 11.6631C19.5823 11.9215 19.7863 12.1369 20.0451 12.1438C20.0492 12.1438 20.0533 12.1438 20.0579 12.1438C20.3103 12.1438 20.5189 11.9421 20.5257 11.6879C20.5322 11.4413 20.532 11.1722 20.5322 10.898C21.1501 10.0782 23.8115 6.44458 23.8115 4.65064C23.8115 2.58493 22.1309 0.904297 20.0652 0.904297ZM20.0652 5.58725C19.5489 5.58725 19.1286 5.16697 19.1286 4.65068C19.1286 4.13438 19.5489 3.71411 20.0652 3.71411C20.5815 3.71411 21.0018 4.13434 21.0018 4.65064C21.0018 5.16697 20.5815 5.58725 20.0652 5.58725Z" fill="#FFE922"/>
<path d="M15.6678 14.4015C14.8949 14.8401 14.4655 15.6015 14.2094 16.1356C14.0973 16.3689 14.1956 16.6488 14.4289 16.7603C14.4943 16.7919 14.5634 16.8065 14.631 16.8065C14.8057 16.8065 14.9731 16.7086 15.0536 16.5408C15.3787 15.8626 15.7108 15.4542 16.1306 15.2155C16.3551 15.0879 16.4342 14.802 16.3062 14.577C16.1791 14.3521 15.8941 14.273 15.6678 14.4015Z" fill="#FFE922"/>
<path d="M11.406 21.1992C10.9368 21.571 10.4036 21.8509 9.77524 22.0553C9.52921 22.1353 9.39474 22.3997 9.47477 22.6457C9.53927 22.8433 9.72265 22.9691 9.92021 22.9691C9.96824 22.9691 10.0171 22.9617 10.0652 22.9462C10.7909 22.7102 11.4376 22.3695 11.9878 21.9337C12.1904 21.7727 12.2247 21.4782 12.0641 21.2756C11.9022 21.0735 11.6082 21.0373 11.406 21.1992Z" fill="#FFE922"/>
<path d="M14.0464 17.7821C13.8041 17.6879 13.5342 17.8082 13.4405 18.0496C13.2306 18.592 12.9681 19.2245 12.6141 19.8039C12.4792 20.0248 12.5492 20.3129 12.7696 20.4478C12.846 20.4945 12.9301 20.5164 13.0134 20.5164C13.1712 20.5164 13.3253 20.4368 13.4135 20.2924C13.8059 19.6494 14.089 18.9689 14.314 18.3881C14.4073 18.147 14.2875 17.8758 14.0464 17.7821Z" fill="#FFE922"/>
<path d="M19.8914 13.2422C19.6787 13.0982 19.3865 13.1535 19.2411 13.3675C19.087 13.5953 18.7714 13.9085 17.817 13.994C17.5595 14.0173 17.3692 14.2446 17.3926 14.5026C17.4145 14.7459 17.6189 14.9288 17.8586 14.9288C17.8728 14.9288 17.8869 14.9283 17.9011 14.9269C18.915 14.8359 19.6069 14.4975 20.0167 13.8924C20.1617 13.6785 20.1054 13.3872 19.8914 13.2422Z" fill="#FFE922"/>
<path d="M8.06266 22.4523C9.54029 20.8766 12.5726 17.2515 12.5726 14.017C12.5726 10.8661 10.104 8.39746 6.95303 8.39746C3.80209 8.39746 1.3335 10.8661 1.3335 14.017C1.3335 18.1708 6.34138 22.9795 6.62125 23.2449C6.62125 23.2449 6.6224 23.246 6.62292 23.2465C6.62446 23.248 6.63034 23.2537 6.63157 23.2548C6.65093 23.2732 6.67508 23.2817 6.69655 23.2961C6.72311 23.3141 6.74712 23.3352 6.7772 23.3474C6.83361 23.3703 6.89305 23.3829 6.95303 23.3829C7.29419 23.3829 7.61841 23.371 7.92573 23.3476C8.18366 23.328 8.37709 23.1034 8.35743 22.8455C8.34338 22.6609 8.22392 22.517 8.06266 22.4523ZM6.95303 16.8268C5.40362 16.8268 4.14326 15.5664 4.14326 14.017C4.14326 12.4676 5.40362 11.2072 6.95303 11.2072C8.50244 11.2072 9.76279 12.4676 9.76279 14.017C9.76279 15.5664 8.50244 16.8268 6.95303 16.8268Z" fill="#FFE922"/>
</svg>
