<svg width="25" height="25" viewBox="0 0 25 25" fill="none" xmlns="http://www.w3.org/2000/svg">
<path d="M17.3543 5.52539C17.3543 4.90733 17.5376 4.30314 17.881 3.78924C18.2244 3.27533 18.7124 2.87479 19.2834 2.63827C19.8545 2.40174 20.4828 2.33986 21.089 2.46044C21.6952 2.58102 22.252 2.87864 22.689 3.31568C23.1261 3.75272 23.4237 4.30954 23.5443 4.91573C23.6649 5.52193 23.603 6.15026 23.3664 6.72128C23.1299 7.2923 22.7294 7.78035 22.2155 8.12373C21.7016 8.46711 21.0974 8.65039 20.4793 8.65039C19.6505 8.65039 18.8557 8.32115 18.2696 7.7351C17.6836 7.14905 17.3543 6.35419 17.3543 5.52539ZM1.72932 6.56706H14.2293C14.5056 6.56706 14.7705 6.45731 14.9659 6.26196C15.1612 6.06661 15.271 5.80166 15.271 5.52539C15.271 5.24912 15.1612 4.98417 14.9659 4.78882C14.7705 4.59347 14.5056 4.48373 14.2293 4.48373H1.72932C1.45305 4.48373 1.1881 4.59347 0.992752 4.78882C0.797401 4.98417 0.687654 5.24912 0.687654 5.52539C0.687654 5.80166 0.797401 6.06661 0.992752 6.26196C1.1881 6.45731 1.45305 6.56706 1.72932 6.56706ZM7.97932 9.69206C7.33459 9.69387 6.7062 9.89506 6.18029 10.268C5.65439 10.641 5.25673 11.1675 5.04182 11.7754H1.72932C1.45305 11.7754 1.1881 11.8851 0.992752 12.0805C0.797401 12.2758 0.687654 12.5408 0.687654 12.8171C0.687654 13.0933 0.797401 13.3583 0.992752 13.5536C1.1881 13.749 1.45305 13.8587 1.72932 13.8587H5.04182C5.23292 14.3992 5.56901 14.8767 6.01333 15.239C6.45764 15.6013 6.99304 15.8344 7.56095 15.9127C8.12885 15.9911 8.70737 15.9117 9.23318 15.6833C9.759 15.4549 10.2119 15.0862 10.5422 14.6177C10.8725 14.1491 11.0676 13.5987 11.1061 13.0267C11.1445 12.4548 11.0249 11.8832 10.7603 11.3746C10.4957 10.8661 10.0963 10.4401 9.60578 10.1433C9.11528 9.84657 8.5526 9.69045 7.97932 9.69206ZM22.5627 11.7754H14.2293C13.9531 11.7754 13.6881 11.8851 13.4928 12.0805C13.2974 12.2758 13.1877 12.5408 13.1877 12.8171C13.1877 13.0933 13.2974 13.3583 13.4928 13.5536C13.6881 13.749 13.9531 13.8587 14.2293 13.8587H22.5627C22.8389 13.8587 23.1039 13.749 23.2992 13.5536C23.4946 13.3583 23.6043 13.0933 23.6043 12.8171C23.6043 12.5408 23.4946 12.2758 23.2992 12.0805C23.1039 11.8851 22.8389 11.7754 22.5627 11.7754ZM10.0627 19.0671H1.72932C1.45305 19.0671 1.1881 19.1768 0.992752 19.3722C0.797401 19.5675 0.687654 19.8325 0.687654 20.1087C0.687654 20.385 0.797401 20.6499 0.992752 20.8453C1.1881 21.0406 1.45305 21.1504 1.72932 21.1504H10.0627C10.3389 21.1504 10.6039 21.0406 10.7992 20.8453C10.9946 20.6499 11.1043 20.385 11.1043 20.1087C11.1043 19.8325 10.9946 19.5675 10.7992 19.3722C10.6039 19.1768 10.3389 19.0671 10.0627 19.0671ZM22.5627 19.0671H19.2502C19.0044 18.372 18.5209 17.7863 17.8851 17.4133C17.2492 17.0403 16.502 16.9041 15.7754 17.0287C15.0489 17.1534 14.3898 17.5309 13.9146 18.0945C13.4395 18.6581 13.1789 19.3716 13.1789 20.1087C13.1789 20.8459 13.4395 21.5593 13.9146 22.123C14.3898 22.6866 15.0489 23.0641 15.7754 23.1887C16.502 23.3134 17.2492 23.1772 17.8851 22.8042C18.5209 22.4312 19.0044 21.8454 19.2502 21.1504H22.5627C22.8389 21.1504 23.1039 21.0406 23.2992 20.8453C23.4946 20.6499 23.6043 20.385 23.6043 20.1087C23.6043 19.8325 23.4946 19.5675 23.2992 19.3722C23.1039 19.1768 22.8389 19.0671 22.5627 19.0671Z" fill="#FFE922"/>
</svg>
