<svg width="16" height="31" viewBox="0 0 16 31" fill="none" xmlns="http://www.w3.org/2000/svg">
<path d="M9.27808 1.4563C9.27808 0.904014 8.83036 0.456299 8.27808 0.456299C7.72579 0.456299 7.27808 0.904014 7.27808 1.4563L9.27808 1.4563ZM7.57097 29.8544C7.96149 30.2449 8.59466 30.2449 8.98518 29.8544L15.3491 23.4904C15.7397 23.0999 15.7397 22.4667 15.3491 22.0762C14.9586 21.6857 14.3255 21.6857 13.9349 22.0762L8.27808 27.7331L2.62122 22.0762C2.2307 21.6857 1.59753 21.6857 1.20701 22.0762C0.816485 22.4667 0.816485 23.0999 1.20701 23.4904L7.57097 29.8544ZM7.27808 1.4563L7.27808 29.1473L9.27808 29.1473L9.27808 1.4563L7.27808 1.4563Z" fill="#92AAB9"/>
</svg>
