<svg width="25" height="25" viewBox="0 0 25 25" fill="none" xmlns="http://www.w3.org/2000/svg">
<path d="M22.1888 9.93514C22.0571 9.53016 21.6979 9.24345 21.2746 9.20515L15.5012 8.681L13.2195 3.33912C13.051 2.94666 12.6677 2.69336 12.2411 2.69336C11.8145 2.69336 11.431 2.94666 11.2636 3.33912L8.98193 8.681L3.20761 9.20515C2.78432 9.24421 2.42589 9.53093 2.29344 9.93514C2.16175 10.3401 2.28337 10.7843 2.6035 11.0651L6.96774 14.8919L5.68094 20.5594C5.58679 20.9761 5.74854 21.407 6.09431 21.657C6.28016 21.792 6.49852 21.8595 6.71764 21.8595C6.90594 21.8595 7.09439 21.8094 7.26269 21.7087L12.2411 18.732L17.2186 21.7087C17.5837 21.9269 18.0429 21.9069 18.3879 21.657C18.7337 21.407 18.8954 20.9761 18.8013 20.5594L17.5145 14.8919L21.8787 11.0651C22.1987 10.7843 22.3204 10.341 22.1888 9.93514Z" fill="#FFE922"/>
</svg>
