<svg width="25" height="25" viewBox="0 0 25 25" fill="none" xmlns="http://www.w3.org/2000/svg">
<path d="M12.1815 22.231C17.6756 22.231 22.1271 17.7795 22.1271 12.2854C22.1271 6.79131 17.6756 2.33984 12.1815 2.33984C6.68743 2.33984 2.23596 6.79131 2.23596 12.2854C2.23596 17.7795 6.68743 22.231 12.1815 22.231ZM6.78688 12.0699L16.3761 8.37265C16.8211 8.21187 17.2098 8.48123 17.0656 9.15421L17.0664 9.15338L15.4337 16.8454C15.3127 17.3908 14.9887 17.5234 14.5353 17.2665L12.0489 15.434L10.8496 16.5893C10.717 16.7219 10.6051 16.8338 10.3482 16.8338L10.5248 14.3035L15.1329 10.1405C15.3334 9.96394 15.0881 9.86449 14.8237 10.0402L9.12906 13.6256L6.67417 12.8598C6.14125 12.6907 6.12965 12.3268 6.78688 12.0699Z" fill="#FFE922"/>
</svg>
