<svg width="25" height="24" viewBox="0 0 25 24" fill="none" xmlns="http://www.w3.org/2000/svg">
<path fill-rule="evenodd" clip-rule="evenodd" d="M11.6015 3.09264C3.455 4.20122 0.0564549 14.2302 5.85589 20.0476C11.026 25.2337 19.7874 23.3128 22.3382 16.4341C24.9257 9.45636 18.9947 2.0865 11.6015 3.09264ZM17.2885 9.77655C17.9516 10.0277 17.9877 10.8377 17.3658 11.5094C17.013 11.8903 12.2976 16.1754 12.0126 16.374C11.3393 16.8431 11.0756 16.6913 9.62802 15.0016C8.13428 13.2581 8.0055 13.0175 8.27779 12.4799C8.72626 11.5944 9.44312 11.78 10.5593 13.0704C11.6049 14.2793 11.41 14.3439 14.0667 11.9076C16.5703 9.61172 16.6734 9.54352 17.2885 9.77655Z" fill="#FFE922"/>
</svg>
