<svg width="21" height="21" viewBox="0 0 21 21" fill="none" xmlns="http://www.w3.org/2000/svg">
<ellipse cx="10.3963" cy="10.1907" rx="8.15018" ry="8.15018" fill="#D9D9D9"/>
<path d="M10.3965 0.19043C8.41867 0.19043 6.48528 0.776919 4.84079 1.87573C3.19629 2.97455 1.91457 4.53633 1.15769 6.36359C0.400817 8.19086 0.202784 10.2015 0.588636 12.1413C0.974488 14.0811 1.9269 15.863 3.32542 17.2615C4.72395 18.66 6.50577 19.6124 8.44558 19.9983C10.3854 20.3841 12.3961 20.1861 14.2233 19.4292C16.0506 18.6723 17.6124 17.3906 18.7112 15.7461C19.81 14.1016 20.3965 12.1682 20.3965 10.1904C20.3934 7.53922 19.3388 4.9975 17.4641 3.12282C15.5894 1.24813 13.0477 0.193557 10.3965 0.19043ZM14.9419 11.0995H11.3056V14.7359C11.3056 14.977 11.2098 15.2082 11.0393 15.3787C10.8688 15.5492 10.6376 15.645 10.3965 15.645C10.1554 15.645 9.92415 15.5492 9.75366 15.3787C9.58317 15.2082 9.4874 14.977 9.4874 14.7359V11.0995H5.85103C5.60993 11.0995 5.3787 11.0037 5.20821 10.8333C5.03772 10.6628 4.94194 10.4315 4.94194 10.1904C4.94194 9.94932 5.03772 9.71809 5.20821 9.5476C5.3787 9.37712 5.60993 9.28134 5.85103 9.28134H9.4874V5.64497C9.4874 5.40387 9.58317 5.17264 9.75366 5.00215C9.92415 4.83166 10.1554 4.73588 10.3965 4.73588C10.6376 4.73588 10.8688 4.83166 11.0393 5.00215C11.2098 5.17264 11.3056 5.40387 11.3056 5.64497V9.28134H14.9419C15.183 9.28134 15.4143 9.37712 15.5848 9.5476C15.7553 9.71809 15.851 9.94932 15.851 10.1904C15.851 10.4315 15.7553 10.6628 15.5848 10.8333C15.4143 11.0037 15.183 11.0995 14.9419 11.0995Z" fill="#00C24D"/>
</svg>
