<svg width="16" height="118" viewBox="0 0 16 118" fill="none" xmlns="http://www.w3.org/2000/svg">
<path d="M9.12109 1.43604C9.12109 0.88375 8.67338 0.436035 8.12109 0.436035C7.56881 0.436035 7.12109 0.88375 7.12109 1.43604L9.12109 1.43604ZM7.41398 117.076C7.80451 117.466 8.43767 117.466 8.8282 117.076L15.1922 110.712C15.5827 110.321 15.5827 109.688 15.1922 109.297C14.8016 108.907 14.1685 108.907 13.7779 109.297L8.12109 114.954L2.46423 109.297C2.07371 108.907 1.44055 108.907 1.05002 109.297C0.659497 109.688 0.659497 110.321 1.05002 110.712L7.41398 117.076ZM7.12109 1.43604L7.12109 116.368L9.12109 116.368L9.12109 1.43604L7.12109 1.43604Z" fill="#92AAB9"/>
</svg>
