<svg width="10" height="17" viewBox="0 0 10 17" fill="none" xmlns="http://www.w3.org/2000/svg">
<path d="M9.16204 8.07938L2.06626 0.983735C1.90214 0.819488 1.68306 0.729004 1.44946 0.729004C1.21586 0.729004 0.996781 0.819488 0.832664 0.983735L0.310109 1.50616C-0.0299206 1.84658 -0.0299206 2.39986 0.310109 2.73976L6.26861 8.69825L0.303498 14.6634C0.139381 14.8276 0.0487671 15.0466 0.0487671 15.28C0.0487671 15.5138 0.139381 15.7327 0.303498 15.8971L0.826052 16.4194C0.990299 16.5836 1.20925 16.6741 1.44285 16.6741C1.67645 16.6741 1.89553 16.5836 2.05965 16.4194L9.16204 9.31726C9.32654 9.15249 9.4169 8.9325 9.41638 8.69864C9.4169 8.46388 9.32654 8.24402 9.16204 8.07938Z" fill="#FFE922"/>
</svg>
