<svg width="11" height="17" viewBox="0 0 11 17" fill="none" xmlns="http://www.w3.org/2000/svg">
<path d="M9.90282 8.01932L2.80704 0.923676C2.64293 0.75943 2.42385 0.668945 2.19025 0.668945C1.95665 0.668945 1.73756 0.75943 1.57345 0.923676L1.05089 1.4461C0.710863 1.78652 0.710863 2.3398 1.05089 2.6797L7.00939 8.63819L1.04428 14.6033C0.880166 14.7675 0.789552 14.9865 0.789552 15.22C0.789552 15.4537 0.880166 15.6727 1.04428 15.837L1.56684 16.3593C1.73108 16.5236 1.95004 16.6141 2.18364 16.6141C2.41724 16.6141 2.63632 16.5236 2.80043 16.3593L9.90282 9.2572C10.0673 9.09243 10.1577 8.87244 10.1572 8.63858C10.1577 8.40382 10.0673 8.18396 9.90282 8.01932Z" fill="white"/>
</svg>
