<svg width="10" height="17" viewBox="0 0 10 17" fill="none" xmlns="http://www.w3.org/2000/svg">
<path d="M0.57057 9.31954L7.66634 16.4152C7.83046 16.5794 8.04954 16.6699 8.28314 16.6699C8.51674 16.6699 8.73582 16.5794 8.89994 16.4152L9.4225 15.8928C9.76253 15.5523 9.76253 14.9991 9.4225 14.6592L3.464 8.70067L9.42911 2.73556C9.59322 2.57132 9.68384 2.35237 9.68384 2.11889C9.68384 1.88517 9.59323 1.66621 9.42911 1.50184L8.90655 0.979542C8.74231 0.815295 8.52336 0.724811 8.28976 0.724811C8.05615 0.724811 7.83707 0.815295 7.67296 0.979542L0.57057 8.08167C0.406064 8.24643 0.31571 8.46642 0.316228 8.70028C0.31571 8.93505 0.406064 9.15491 0.57057 9.31954Z" fill="white"/>
</svg>
