<svg width="23" height="18" viewBox="0 0 23 18" fill="none" xmlns="http://www.w3.org/2000/svg">
<path d="M15.089 3.45424V1.03281C15.089 0.653331 14.7813 0.345703 14.4018 0.345703H8.17496C7.79548 0.345703 7.48785 0.653331 7.48785 1.03281V3.45424H5.53955V17.6545H17.0372V3.45424H15.089ZM13.7147 3.44878H8.86206V1.71992H13.7147V3.44878H13.7147Z" fill="#FFE922"/>
<path d="M2.70135 3.4541C1.41349 3.4541 0.365723 4.50183 0.365723 5.78969V15.3188C0.365723 16.6066 1.41349 17.6544 2.70135 17.6544H4.16538V3.4541H2.70135Z" fill="#FFE922"/>
<path d="M19.8755 3.4541H18.4115V17.6544H19.8755C21.1634 17.6544 22.2112 16.6066 22.2112 15.3188V5.78969C22.2111 4.50183 21.1633 3.4541 19.8755 3.4541Z" fill="#FFE922"/>
</svg>
