<svg width="19" height="21" viewBox="0 0 19 21" fill="none" xmlns="http://www.w3.org/2000/svg">
<path d="M16.1293 18.6469V0.799316H2.24785V18.6469H0.264771V20.6299H18.1123V18.6469H16.1293ZM8.19703 2.78239H10.1801V4.76547H8.19703V2.78239ZM8.19703 6.7485H10.1801V8.73157H8.19703V6.7485ZM8.19703 10.7146H10.1801V12.6977H8.19703V10.7146ZM6.21395 12.6977H4.23088V10.7146H6.21395V12.6977ZM6.21395 8.73157H4.23088V6.7485H6.21395V8.73157ZM6.21395 4.76542H4.23088V2.78239H6.21395V4.76542ZM11.1716 18.6469H7.20551V16.6638C7.20551 15.5731 8.09789 14.6807 9.18859 14.6807C10.2793 14.6807 11.1716 15.5731 11.1716 16.6638V18.6469ZM14.1462 12.6977H12.1631V10.7146H14.1462V12.6977ZM14.1462 8.73157H12.1631V6.7485H14.1462V8.73157ZM14.1462 4.76542H12.1631V2.78239H14.1462V4.76542Z" fill="#FFE922"/>
</svg>
