<svg width="24" height="13" viewBox="0 0 24 13" fill="none" xmlns="http://www.w3.org/2000/svg">
<path d="M10.0939 0.726074C11.6839 0.812458 13.2504 1.15076 14.7345 1.72855C16.1287 2.3026 17.4275 3.08541 18.5855 4.05061L18.8564 4.27691L10.8817 3.87912L10.0939 0.726074Z" fill="#FFE922"/>
<path d="M23.9404 9.94055H23.0623C23.0574 9.90778 23.0494 9.87655 23.0434 9.84421C23.0363 9.80174 23.0295 9.76361 23.0205 9.72352C23.0088 9.66982 22.9944 9.61723 22.9782 9.56429C22.9681 9.52693 22.9582 9.48922 22.9463 9.45271C22.9283 9.39773 22.9077 9.3442 22.887 9.29075C22.8738 9.25782 22.8625 9.22463 22.8487 9.19237C22.8353 9.1602 22.8174 9.1259 22.8014 9.09229H23.9404V9.94055Z" fill="#FFE922"/>
<path d="M18.0033 10.3647C18.0033 11.5356 18.9527 12.4849 20.1236 12.4849C21.2948 12.4849 22.2441 11.5356 22.2441 10.3647C22.2441 9.19351 21.2948 8.24414 20.1236 8.24414C18.9527 8.24414 18.0033 9.19351 18.0033 10.3647Z" fill="#FFE922"/>
<path d="M3.63508 1.1428L7.11545 0.775563C7.71265 0.713179 8.31308 0.68203 8.91342 0.682626C9.01215 0.682626 9.11104 0.687392 9.21028 0.689094L9.99658 3.83363L5.10394 3.5892L3.63508 1.1428Z" fill="#FFE922"/>
<path d="M2.29972 7.07439L2.72372 5.37812C2.75521 5.2514 2.72653 5.11718 2.64619 5.01429C2.56619 4.91156 2.44287 4.85131 2.31215 4.85131H0.310938L1.79521 2.99597C1.89878 2.86678 1.91759 2.68942 1.84363 2.54124L1.26916 1.39213L2.70492 1.24072L4.49336 4.22168C4.56604 4.34296 4.69429 4.41998 4.83574 4.4273L10.2114 4.69531L11.0987 8.24385H8.24922V9.09211H11.3107L11.5229 9.94037H6.94708C6.9424 9.90761 6.93414 9.87637 6.92819 9.84403C6.92112 9.80156 6.91431 9.76344 6.90529 9.72335C6.89363 9.66965 6.87916 9.61705 6.86299 9.56411C6.85287 9.52675 6.84308 9.48905 6.83108 9.45254C6.81338 9.39756 6.79261 9.34403 6.77184 9.29058C6.75857 9.25764 6.74725 9.22445 6.73346 9.1922C6.70725 9.13151 6.67772 9.07279 6.64895 9.01407C6.63686 8.99066 6.62674 8.96666 6.61423 8.94368C6.57031 8.8636 6.52299 8.78581 6.47201 8.71006C6.46061 8.69296 6.44725 8.67772 6.43601 8.66079C6.39354 8.60274 6.35107 8.54538 6.30878 8.49117C6.28801 8.46572 6.26656 8.44198 6.24384 8.41696C6.20529 8.37466 6.16699 8.32921 6.12639 8.28972C6.10069 8.26351 6.07346 8.23883 6.04622 8.21397C6.00665 8.17653 5.96733 8.13925 5.92588 8.10393C5.89652 8.07899 5.86588 8.05576 5.8355 8.03185C5.79311 7.99925 5.75056 7.96742 5.70826 7.93678C5.67609 7.91448 5.64349 7.89448 5.60962 7.87176C5.56732 7.84325 5.5212 7.81559 5.47549 7.78989C5.44111 7.7698 5.40639 7.75108 5.37098 7.73269C5.324 7.70818 5.27668 7.68546 5.22817 7.66384C5.19217 7.64725 5.15617 7.63125 5.11983 7.61635C5.06962 7.59601 5.0183 7.57814 4.96681 7.56044C4.93013 7.54759 4.89362 7.53465 4.85591 7.52342C4.8017 7.5075 4.74655 7.49414 4.69123 7.48103C4.6548 7.47269 4.61914 7.46282 4.58238 7.45559C4.52042 7.44324 4.45736 7.43473 4.39378 7.42656C4.36229 7.42248 4.33131 7.41652 4.29948 7.41371C4.20408 7.40435 4.10697 7.39873 4.00901 7.39873C3.86254 7.39976 3.71624 7.41176 3.5719 7.43473C3.54288 7.43907 3.51369 7.44282 3.48679 7.44793C3.35105 7.47193 3.21743 7.50554 3.08628 7.5481C3.06262 7.55618 3.03939 7.56571 3.0159 7.57431C2.89632 7.61652 2.78007 7.66665 2.66721 7.72393C2.65104 7.7321 2.63411 7.73882 2.61862 7.74742C2.49989 7.81167 2.38559 7.88376 2.27666 7.96308C2.25189 7.98104 2.22772 7.99925 2.20346 8.0178C2.09674 8.09951 1.99572 8.18776 1.90082 8.28291C1.88865 8.295 1.87802 8.30836 1.8667 8.3207C1.78065 8.41057 1.70074 8.50581 1.62695 8.60606C1.61137 8.6276 1.59435 8.64862 1.57903 8.67023C1.50286 8.77943 1.43393 8.89407 1.37299 9.01245C1.35937 9.03875 1.34737 9.06539 1.33461 9.09177C1.27571 9.21288 1.22533 9.3379 1.18337 9.46607C1.18337 9.4705 1.17963 9.47458 1.17835 9.47892L0.191873 8.49245V7.39584H1.88814C2.08287 7.39584 2.2524 7.26333 2.29972 7.07439ZM5.28068 6.12357H7.82522V5.27531H5.28068V6.12357Z" fill="#FFE922"/>
<path d="M1.76953 5.69971L1.55753 6.54771H0.192326V5.69971H1.76953Z" fill="#FFE922"/>
<path d="M1.88859 10.3647C1.88859 11.5356 2.83796 12.4849 4.00912 12.4849C5.18002 12.4849 6.12939 11.5356 6.12939 10.3647C6.12939 9.19351 5.18002 8.24414 4.00912 8.24414C2.83796 8.24414 1.88859 9.19351 1.88859 10.3647Z" fill="#FFE922"/>
<path d="M11.9733 8.24382L11.0973 4.73877L20.2507 5.1952L22.858 6.20848C23.5272 6.58338 23.9412 7.29105 23.9404 8.05829V8.24382H22.197C22.1854 8.23242 22.1728 8.22169 22.1606 8.2108C22.121 8.17344 22.0818 8.13625 22.0402 8.10118C22.0109 8.07599 21.9802 8.05259 21.9499 8.0291C21.9073 7.99624 21.865 7.96441 21.8225 7.93403C21.7904 7.91148 21.7577 7.89148 21.7242 7.8685C21.6818 7.84024 21.6356 7.8125 21.5898 7.7868C21.5554 7.76688 21.5207 7.74824 21.4854 7.72952C21.4384 7.70543 21.3909 7.68245 21.3424 7.66075C21.3064 7.64424 21.2704 7.62816 21.2339 7.61335C21.1839 7.59292 21.1326 7.57513 21.0813 7.55718C21.0443 7.54475 21.0078 7.53147 20.9703 7.52041C20.9159 7.50424 20.8607 7.4913 20.8055 7.47803C20.7692 7.46952 20.7334 7.45981 20.6967 7.45258C20.6349 7.44033 20.5715 7.43181 20.5079 7.42373C20.4766 7.41973 20.4455 7.41369 20.4138 7.41071C20.3184 7.40135 20.2212 7.39581 20.1233 7.39581C20.0253 7.39581 19.9282 7.40135 19.8328 7.41071C19.801 7.41369 19.77 7.41973 19.7385 7.42373C19.6749 7.43181 19.6114 7.44033 19.5499 7.45258C19.5132 7.45981 19.4775 7.46952 19.4411 7.47803C19.3858 7.4913 19.3306 7.50424 19.2764 7.52041C19.2387 7.53147 19.2022 7.54475 19.1653 7.55718C19.114 7.57513 19.0627 7.59292 19.0125 7.61335C18.9761 7.62816 18.9401 7.64424 18.904 7.66075C18.8556 7.68245 18.8083 7.70331 18.7613 7.72952C18.7259 7.74824 18.6912 7.76688 18.6568 7.7868C18.6111 7.8125 18.5665 7.84024 18.5224 7.8685C18.4888 7.88986 18.4562 7.91097 18.424 7.93403C18.3817 7.96441 18.3391 7.99624 18.2968 8.0291C18.2662 8.05259 18.2355 8.07599 18.2064 8.10118C18.164 8.13625 18.1255 8.17344 18.0861 8.2108C18.0588 8.23574 18.0316 8.26042 18.0059 8.28689C17.9634 8.32918 17.927 8.3714 17.8885 8.41395C17.8668 8.43906 17.846 8.46272 17.8235 8.48825C17.7787 8.54331 17.7386 8.60059 17.6963 8.65795C17.6848 8.6748 17.6716 8.69004 17.6603 8.70697C17.6093 8.78246 17.562 8.86034 17.5181 8.94068C17.5056 8.96357 17.4951 8.98766 17.4834 9.01106C17.4533 9.06953 17.4236 9.12851 17.3988 9.18919C17.385 9.22145 17.3737 9.25447 17.3605 9.28749C17.3397 9.34102 17.3179 9.39438 17.3012 9.44953C17.2892 9.48613 17.2794 9.52375 17.2693 9.56094C17.2544 9.61413 17.2399 9.66673 17.2267 9.72051C17.218 9.76052 17.211 9.80018 17.2041 9.84103C17.1982 9.87311 17.1899 9.9046 17.1852 9.93737H12.3974L12.1853 9.08928H16.7311V8.24382H11.9733ZM14.6108 5.27528H12.4903V6.12355H14.6108V5.27528Z" fill="#FFE922"/>
</svg>
