<svg width="22" height="23" viewBox="0 0 22 23" fill="none" xmlns="http://www.w3.org/2000/svg">
<path d="M10.8594 22.2014C16.8568 22.2014 21.7188 17.2314 21.7188 11.1007C21.7188 4.96995 16.8568 0 10.8594 0C4.86191 0 0 4.96995 0 11.1007C0 17.2314 4.86191 22.2014 10.8594 22.2014Z" fill="#1E8A4A"/>
<path fill-rule="evenodd" clip-rule="evenodd" d="M7.46829 16.5149L3.49666 12.1697C2.95292 11.5748 2.98413 10.6336 3.56609 10.0778C4.14805 9.52193 5.06879 9.55392 5.61253 10.1487L8.67607 13.5004L13.5253 8.869C13.5689 8.82731 13.6144 8.78911 13.6616 8.75397L15.9419 6.57605C16.5239 6.02023 17.4447 6.05222 17.9884 6.64711C18.5321 7.24192 18.5008 8.1832 17.9189 8.73903L10.9541 15.3911L10.9466 15.383L8.53738 17.6841L7.46829 16.5149Z" fill="white"/>
</svg>
