<svg width="25" height="24" viewBox="0 0 25 24" fill="none" xmlns="http://www.w3.org/2000/svg">
<path d="M12.5 2.12012C7.81308 2.12012 4 5.93319 4 10.6201C4 15.307 7.81308 19.1201 12.5 19.1201C17.1869 19.1201 21 15.307 21 10.6201C21 5.93319 17.1869 2.12012 12.5 2.12012ZM12.5 18.3474C8.23925 18.3474 4.77273 14.8811 4.77273 10.6201C4.77273 6.35936 8.23925 2.89284 12.5 2.89284C16.7609 2.89284 20.2273 6.35936 20.2273 10.6201C20.2273 14.8811 16.7609 18.3474 12.5 18.3474ZM12.5 3.66557C8.66523 3.66557 5.54545 6.78534 5.54545 10.6201C5.54545 14.4547 8.66523 17.5747 12.5 17.5747C16.3346 17.5747 19.4545 14.4547 19.4545 10.6201C19.4545 6.78534 16.3346 3.66557 12.5 3.66557ZM16.3436 11.9015C16.2897 12.0633 16.1391 12.1656 15.9773 12.1656C15.9369 12.1656 15.8958 12.1592 15.855 12.1456L12.3778 10.9867C12.22 10.934 12.1136 10.7865 12.1136 10.6201V5.98375C12.1136 5.77039 12.2866 5.59739 12.5 5.59739C12.7134 5.59739 12.8864 5.77039 12.8864 5.98375V10.3417L16.0995 11.4128C16.3018 11.48 16.4112 11.6988 16.3436 11.9015Z" fill="#FFE922"/>
</svg>
