<svg width="26" height="26" viewBox="0 0 26 26" fill="none" xmlns="http://www.w3.org/2000/svg">
<path d="M12.8571 0C5.76768 0 0 5.76768 0 12.8571C0 19.9466 5.76768 25.7143 12.8571 25.7143C19.9466 25.7143 25.7143 19.9466 25.7143 12.8571C25.7143 5.76768 19.9466 0 12.8571 0ZM12.8571 24.5455C6.41231 24.5455 1.16883 19.3023 1.16883 12.8571C1.16883 6.41231 6.41231 1.16883 12.8571 1.16883C19.3023 1.16883 24.5455 6.41231 24.5455 12.8571C24.5455 19.3023 19.3023 24.5455 12.8571 24.5455ZM12.8571 2.33766C7.05665 2.33766 2.33766 7.05665 2.33766 12.8571C2.33766 18.6574 7.05665 23.3766 12.8571 23.3766C18.6574 23.3766 23.3766 18.6574 23.3766 12.8571C23.3766 7.05665 18.6574 2.33766 12.8571 2.33766ZM18.671 14.7953C18.5894 15.0401 18.3617 15.1948 18.1169 15.1948C18.0558 15.1948 17.9936 15.1851 17.932 15.1646L12.6722 13.4116C12.4337 13.332 12.2727 13.1088 12.2727 12.8571V5.84416C12.2727 5.52141 12.5344 5.25974 12.8571 5.25974C13.1799 5.25974 13.4416 5.52141 13.4416 5.84416V12.436L18.3018 14.0562C18.6077 14.1578 18.7732 14.4888 18.671 14.7953Z" fill="white"/>
</svg>
