<svg width="24" height="17" viewBox="0 0 24 17" fill="none" xmlns="http://www.w3.org/2000/svg">
<path d="M21.913 0H2.08696C1.53346 0 1.00264 0.219875 0.611255 0.611255C0.219875 1.00264 0 1.53346 0 2.08696V2.6087H24V2.08696C24 1.53346 23.7801 1.00264 23.3887 0.611255C22.9974 0.219875 22.4665 0 21.913 0Z" fill="white"/>
<path d="M0 3.65234H24V5.7393H0V3.65234Z" fill="white"/>
<path d="M2.6087 9.39111H12V10.4346H2.6087V9.39111Z" fill="white"/>
<path d="M0 14.6088C0 15.1623 0.219875 15.6931 0.611255 16.0845C1.00264 16.4759 1.53346 16.6958 2.08696 16.6958H21.913C22.4665 16.6958 22.9974 16.4759 23.3887 16.0845C23.7801 15.6931 24 15.1623 24 14.6088V6.78271H0V14.6088ZM4.69565 15.1305H2.6087C2.47032 15.1305 2.33762 15.0756 2.23977 14.9777C2.14193 14.8799 2.08696 14.7472 2.08696 14.6088C2.08696 14.4704 2.14193 14.3377 2.23977 14.2399C2.33762 14.142 2.47032 14.0871 2.6087 14.0871H4.69565C4.83403 14.0871 4.96673 14.142 5.06458 14.2399C5.16242 14.3377 5.21739 14.4704 5.21739 14.6088C5.21739 14.7472 5.16242 14.8799 5.06458 14.9777C4.96673 15.0756 4.83403 15.1305 4.69565 15.1305ZM8.86957 15.1305H6.78261C6.64423 15.1305 6.51153 15.0756 6.41368 14.9777C6.31584 14.8799 6.26087 14.7472 6.26087 14.6088C6.26087 14.4704 6.31584 14.3377 6.41368 14.2399C6.51153 14.142 6.64423 14.0871 6.78261 14.0871H8.86957C9.00794 14.0871 9.14065 14.142 9.23849 14.2399C9.33634 14.3377 9.3913 14.4704 9.3913 14.6088C9.3913 14.7472 9.33634 14.8799 9.23849 14.9777C9.14065 15.0756 9.00794 15.1305 8.86957 15.1305ZM19.3043 14.0871H21.3913C21.5297 14.0871 21.6624 14.142 21.7602 14.2399C21.8581 14.3377 21.913 14.4704 21.913 14.6088C21.913 14.7472 21.8581 14.8799 21.7602 14.9777C21.6624 15.0756 21.5297 15.1305 21.3913 15.1305H19.3043C19.166 15.1305 19.0333 15.0756 18.9354 14.9777C18.8376 14.8799 18.7826 14.7472 18.7826 14.6088C18.7826 14.4704 18.8376 14.3377 18.9354 14.2399C19.0333 14.142 19.166 14.0871 19.3043 14.0871ZM15.1304 14.0871H17.2174C17.3558 14.0871 17.4885 14.142 17.5863 14.2399C17.6842 14.3377 17.7391 14.4704 17.7391 14.6088C17.7391 14.7472 17.6842 14.8799 17.5863 14.9777C17.4885 15.0756 17.3558 15.1305 17.2174 15.1305H15.1304C14.9921 15.1305 14.8594 15.0756 14.7615 14.9777C14.6637 14.8799 14.6087 14.7472 14.6087 14.6088C14.6087 14.4704 14.6637 14.3377 14.7615 14.2399C14.8594 14.142 14.9921 14.0871 15.1304 14.0871ZM13.0435 15.1305H10.9565C10.8181 15.1305 10.6854 15.0756 10.5876 14.9777C10.4898 14.8799 10.4348 14.7472 10.4348 14.6088C10.4348 14.4704 10.4898 14.3377 10.5876 14.2399C10.6854 14.142 10.8181 14.0871 10.9565 14.0871H13.0435C13.1819 14.0871 13.3146 14.142 13.4124 14.2399C13.5102 14.3377 13.5652 14.4704 13.5652 14.6088C13.5652 14.7472 13.5102 14.8799 13.4124 14.9777C13.3146 15.0756 13.1819 15.1305 13.0435 15.1305ZM1.56522 8.86967C1.56522 8.7313 1.62019 8.59859 1.71803 8.50075C1.81588 8.4029 1.94858 8.34793 2.08696 8.34793H12.5217C12.6601 8.34793 12.7928 8.4029 12.8907 8.50075C12.9885 8.59859 13.0435 8.7313 13.0435 8.86967V10.9566C13.0435 11.095 12.9885 11.2277 12.8907 11.3256C12.7928 11.4234 12.6601 11.4784 12.5217 11.4784H2.08696C1.94858 11.4784 1.81588 11.4234 1.71803 11.3256C1.62019 11.2277 1.56522 11.095 1.56522 10.9566V8.86967Z" fill="white"/>
</svg>
