<svg width="14" height="14" viewBox="0 0 14 14" fill="none" xmlns="http://www.w3.org/2000/svg">
<path d="M7.95354 7.02828L13.0044 1.97722C13.3332 1.64867 13.3332 1.11744 13.0044 0.788894C12.6759 0.460343 12.1447 0.460343 11.8161 0.788894L6.76506 5.83996L1.71415 0.788894C1.38544 0.460343 0.854376 0.460343 0.525825 0.788894C0.197121 1.11744 0.197121 1.64867 0.525825 1.97722L5.57674 7.02828L0.525825 12.0793C0.197121 12.4079 0.197121 12.9391 0.525825 13.2677C0.689562 13.4316 0.904852 13.5139 1.11999 13.5139C1.33512 13.5139 1.55026 13.4316 1.71415 13.2677L6.76506 8.2166L11.8161 13.2677C11.98 13.4316 12.1952 13.5139 12.4103 13.5139C12.6254 13.5139 12.8406 13.4316 13.0044 13.2677C13.3332 12.9391 13.3332 12.4079 13.0044 12.0793L7.95354 7.02828Z" fill="white"/>
</svg>
