<svg width="25" height="25" viewBox="0 0 25 25" fill="none" xmlns="http://www.w3.org/2000/svg">
<path d="M18.0096 6.24202C18.0096 4.63643 15.8303 3.42578 12.9403 3.42578C10.0504 3.42578 7.87109 4.63643 7.87109 6.24202C7.87109 6.55316 8.12328 6.80527 8.43434 6.80527H17.4463C17.7574 6.80527 18.0096 6.55316 18.0096 6.24202Z" fill="#FFE922"/>
<path d="M11.712 19.3706L12.1674 18.7634L11.5083 18.2192L11.712 19.3706Z" fill="#FFE922"/>
<path d="M13.5944 22.6514L13.8996 20.8887L12.9401 19.6094L11.9805 20.8888L12.2857 22.6514H13.5944Z" fill="#FFE922"/>
<path d="M14.3723 18.2192L13.7134 18.7633L14.1686 19.3703L14.3723 18.2192Z" fill="#FFE922"/>
<path d="M9.95307 15.8936L9.65166 15.943C7.31452 16.3253 5.61816 18.3099 5.61816 20.6625V22.6516H11.1425L9.95307 15.8936Z" fill="#FFE922"/>
<path d="M20.2627 20.6625C20.2627 18.3099 18.5663 16.3253 16.2292 15.943L15.9276 15.8936L14.7383 22.6516H20.2627V20.6625Z" fill="#FFE922"/>
<path d="M14.8066 15.7661C14.5661 15.815 14.3221 15.8548 14.0669 15.8548H11.814C11.5587 15.8548 11.3147 15.815 11.0742 15.7661L11.2055 16.5078L12.9404 17.9406L14.6752 16.5081L14.8066 15.7661Z" fill="#FFE922"/>
<path d="M11.8138 14.7282H14.0668C15.6196 14.7282 16.883 13.4647 16.883 11.9119V10.4346C16.5503 10.6286 16.1687 10.7479 15.7565 10.7479H10.1241C9.71187 10.7479 9.33025 10.6286 8.99756 10.4346V11.9119C8.99756 13.4647 10.261 14.7282 11.8138 14.7282Z" fill="#FFE922"/>
<path d="M10.1241 9.62138H15.7565C16.3787 9.62138 16.883 9.11705 16.883 8.49489V7.93164H8.99756V8.49489C8.99756 9.11705 9.50189 9.62138 10.1241 9.62138Z" fill="#FFE922"/>
</svg>
