<svg width="95" height="96" viewBox="0 0 95 96" fill="none" xmlns="http://www.w3.org/2000/svg">
<path d="M76.9782 10.6436C76.7631 47.3933 47.0252 77.1313 10.2754 77.3464C21.6192 91.6899 40.1917 98.2443 58.0251 94.1994C75.8594 90.1537 89.7855 76.2276 93.8313 58.3933C97.8762 40.5598 91.3218 21.9874 76.9782 10.6436Z" fill="#93D0E4"/>
<path d="M76.9782 10.6435C58.0819 -4.3286 30.9638 -2.76277 13.9164 14.2846C-3.13094 31.332 -4.69676 58.4501 10.2754 77.3464C47.0251 77.1312 76.7631 47.3933 76.9782 10.6435Z" fill="#9FD5E7"/>
<path d="M70.438 20.0343C66.8185 21.6721 64.8209 19.74 62.249 21.6721C59.0718 24.0632 57.7946 30.2546 60.6112 34.7745C62.6049 37.959 66.1796 38.7579 70.2157 39.6392C74.3006 31.259 76.5878 22.1184 76.9308 12.8018C75.7401 15.9358 73.4257 18.5141 70.438 20.0343Z" fill="#16A571"/>
<path d="M77.4956 11.0498C77.3477 11.6472 77.1565 12.2326 76.9238 12.802C76.5815 22.1186 74.2936 31.2592 70.2095 39.6394L70.4382 39.6881C76.0561 40.9165 78.2345 38.3126 83.5406 39.6881C85.9077 40.3671 88.1285 41.4779 90.0918 42.9637C92.367 44.8407 94.0488 47.3381 94.9316 50.1523C94.9676 49.3974 95.0052 48.6425 95.0052 47.8771C95.018 33.5896 88.5844 20.0593 77.4956 11.0498Z" fill="#139163"/>
<path d="M45.8711 67.5306C49.1139 71.1173 49.9656 77.1775 47.5089 80.633C45.5112 83.4504 42.7762 82.4835 40.9576 85.5464C39.5822 88.1031 39.5822 91.1795 40.9576 93.7354C41.2104 94.1976 41.5118 94.6303 41.8573 95.0277C43.7326 95.254 45.6199 95.3692 47.5089 95.3732C64.8289 95.378 80.7767 85.951 89.1241 70.775C86.1451 68.7821 81.4916 66.1455 76.9893 65.8928C72.375 65.4417 67.7463 66.5989 63.8869 69.1684C59.0558 72.7063 58.1058 77.7181 55.6979 77.3574C53.9945 77.1119 53.0612 74.3601 52.4223 72.444C50.9596 68.0808 51.7529 65.1283 51.7393 62.6812C49.7392 64.2814 47.6496 65.7656 45.48 67.1259C45.6487 67.2915 45.7879 67.4378 45.8711 67.5306Z" fill="#139163"/>
<path d="M50.7846 59.3419C49.098 56.9836 45.9536 56.5414 42.5956 56.0663C35.5534 55.0835 32.7856 58.1136 29.4932 56.0663C26.8102 54.2798 25.5067 51.0226 26.2176 47.8773C27.5939 43.7668 33.6045 45.1591 40.9578 39.6883C43.3329 37.9362 48.9829 33.7273 49.1468 28.2237C49.3108 22.8353 44.0535 21.2958 42.5956 15.1213C41.9622 12.4615 43.1442 6.3445 46.1399 0.430664C28.5088 0.928882 12.6074 11.1595 4.8446 26.997V27.0121C3.79379 32.8308 3.82178 38.7934 4.92617 44.6017C5.92581 51.2025 6.84227 57.1963 11.4774 62.6175C13.5086 65.0087 16.6363 68.6449 21.3042 69.1687C26.4799 69.7421 33.3094 66.4337 34.4066 65.8931C35.8741 64.9295 37.5678 64.3649 39.32 64.2553C41.6616 64.4049 43.8607 65.4293 45.4802 67.1263C47.6498 65.766 49.7394 64.2817 51.7395 62.6815C51.7947 61.4939 51.4596 60.3208 50.7846 59.3419Z" fill="#16A571"/>
<path d="M34.4066 13.4833C34.4066 20.7222 21.3042 38.0503 21.3042 38.0503C21.3042 38.0503 13.132 27.2406 9.69244 19.134C8.84555 17.3603 8.34013 15.4434 8.20178 13.4833C8.20178 6.24752 14.0684 0.380859 21.3042 0.380859C28.5408 0.380859 34.4066 6.24752 34.4066 13.4833Z" fill="#E65F3C"/>
<path d="M26.2177 11.8455C26.2177 14.5589 24.0177 16.7589 21.3043 16.7589C18.5909 16.7589 16.3909 14.5589 16.3909 11.8455C16.3909 9.13212 18.5909 6.93213 21.3043 6.93213C24.0177 6.93213 26.2177 9.13212 26.2177 11.8455Z" fill="#F2F2F2"/>
<path d="M83.5408 57.704C83.1809 60.7757 82.1821 63.7378 80.609 66.4008C77.6037 71.9276 74.205 77.2312 70.4384 82.271C70.4384 82.271 66.1471 76.5883 62.4621 70.3641C61.1042 68.1066 59.8894 65.765 58.8266 63.3547C57.9797 61.581 57.4743 59.6641 57.3359 57.704C57.3359 50.4682 63.2026 44.6016 70.4384 44.6016C77.6749 44.6016 83.5408 50.4682 83.5408 57.704Z" fill="#E2BB1D"/>
<path d="M75.3517 56.0662C75.3517 58.7796 73.1517 60.9796 70.4383 60.9796C67.7249 60.9796 65.5249 58.7796 65.5249 56.0662C65.5249 53.3528 67.7249 51.1528 70.4383 51.1528C73.1517 51.1528 75.3517 53.3528 75.3517 56.0662Z" fill="#F2F2F2"/>
</svg>
