<svg width="23" height="23" viewBox="0 0 23 23" fill="none" xmlns="http://www.w3.org/2000/svg">
<path d="M18.0304 11.7644C17.5239 11.7644 17.1144 12.1748 17.1144 12.6803V20.0082C17.1144 20.5128 16.704 20.9241 16.1985 20.9241H3.37482C2.86914 20.9241 2.4589 20.5128 2.4589 20.0082V7.18445C2.4589 6.67978 2.86914 6.26853 3.37482 6.26853H10.7027C11.2092 6.26853 11.6186 5.85812 11.6186 5.35261C11.6186 4.84693 11.2092 4.43652 10.7027 4.43652H3.37482C1.8598 4.43652 0.626892 5.66943 0.626892 7.18445V20.0082C0.626892 21.5232 1.8598 22.7561 3.37482 22.7561H16.1985C17.7135 22.7561 18.9465 21.5232 18.9465 20.0082V12.6803C18.9465 12.1738 18.5369 11.7644 18.0304 11.7644Z" fill="#92AAB9"/>
<path d="M9.21504 10.9298C9.15097 10.9939 9.10787 11.0754 9.08959 11.1633L8.44202 14.4023C8.41183 14.5524 8.45946 14.7072 8.56748 14.8162C8.65452 14.9033 8.77176 14.9499 8.89185 14.9499C8.92103 14.9499 8.95139 14.9472 8.98158 14.9408L12.2196 14.2933C12.3093 14.2748 12.3908 14.2319 12.4541 14.1676L19.7012 6.92045L16.4632 3.68262L9.21504 10.9298Z" fill="#92AAB9"/>
<path d="M21.9398 1.44327C21.0468 0.55016 19.594 0.55016 18.7018 1.44327L17.4341 2.7109L20.6721 5.9489L21.9398 4.68111C22.3722 4.24973 22.6103 3.67445 22.6103 3.06261C22.6103 2.45076 22.3722 1.87548 21.9398 1.44327Z" fill="#92AAB9"/>
</svg>
