<svg width="25" height="25" viewBox="0 0 25 25" fill="none" xmlns="http://www.w3.org/2000/svg">
<path d="M12.8209 2.51074C8.99831 2.51074 5.88751 5.64311 5.88751 9.49424C5.88751 14.9663 12.1692 20.6162 12.4365 20.8535C12.5467 20.9513 12.6838 20.9999 12.8209 20.9999C12.9581 20.9999 13.0952 20.9513 13.2054 20.8543C13.4727 20.6162 19.7544 14.9663 19.7544 9.49424C19.7544 5.64311 16.6436 2.51074 12.8209 2.51074ZM12.8209 13.2961C10.697 13.2961 8.96904 11.5681 8.96904 9.44417C8.96904 7.32023 10.697 5.59226 12.8209 5.59226C14.9449 5.59226 16.6728 7.32023 16.6728 9.44417C16.6728 11.5681 14.9449 13.2961 12.8209 13.2961Z" fill="#FFE922"/>
<ellipse cx="12.8209" cy="23.1594" rx="2.74866" ry="0.895758" fill="#FFE922"/>
</svg>
