<svg width="27" height="27" viewBox="0 0 27 27" fill="none" xmlns="http://www.w3.org/2000/svg">
<path fill-rule="evenodd" clip-rule="evenodd" d="M12.878 0.0229607C12.8681 0.0338763 12.8051 0.0706979 12.738 0.104775C12.3612 0.29623 12.1883 0.538885 12.101 0.999008L12.0693 1.16619V1.63037C12.0693 2.21318 12.0644 2.23505 11.9293 2.26073C11.8376 2.27816 11.6156 2.31504 11.5093 2.33051C10.9806 2.40741 10.1648 2.6002 9.7679 2.74205C9.2851 2.91461 8.92118 3.05659 8.71751 3.15189C8.4631 3.27093 7.91074 3.54833 7.80436 3.6105C7.75501 3.63934 7.66242 3.69338 7.59861 3.73059C7.43541 3.82575 6.7877 4.25703 6.64841 4.36331C6.47317 4.497 6.1824 4.72933 6.12164 4.7842C6.09202 4.81095 6.02029 4.87062 5.96223 4.9168C5.82516 5.02582 5.02564 5.82535 4.91669 5.96235C4.87051 6.02042 4.80332 6.10005 4.76736 6.13932C4.73141 6.17858 4.66854 6.25458 4.62767 6.30822C4.58679 6.36185 4.49554 6.47937 4.4249 6.56936C4.28418 6.74862 3.83083 7.42596 3.6853 7.67436C3.42667 8.1158 3.03205 8.94085 2.91111 9.29298C2.89216 9.34814 2.85915 9.4384 2.83773 9.49355C2.6523 9.97122 2.3707 11.0846 2.32507 11.5204C2.31991 11.5698 2.30566 11.6695 2.2934 11.7421C2.23392 12.0945 2.28487 12.0694 1.62878 12.0694H1.16312L0.974822 12.1065C0.530947 12.194 0.293528 12.3663 0.104067 12.7386C0.0698428 12.8059 0.0330951 12.8688 0.0224223 12.8785C-0.00747411 12.9055 -0.00747411 13.5029 0.0224223 13.5299C0.0330951 13.5396 0.0698428 13.6025 0.104067 13.6698C0.370496 14.1933 0.680366 14.3279 1.64456 14.3388C2.24421 14.3455 2.23674 14.3437 2.26265 14.4902C2.29981 14.7003 2.31704 14.8099 2.32514 14.888C2.35106 15.1376 2.52055 15.9027 2.6385 16.3026C2.71884 16.575 2.73624 16.629 2.7897 16.7721C2.81796 16.8477 2.86721 16.9856 2.89914 17.0785C2.93108 17.1714 2.98414 17.3068 3.01708 17.3794C3.05002 17.452 3.09039 17.5449 3.10678 17.586C3.18691 17.7865 3.53696 18.4821 3.68199 18.7289C3.82366 18.97 4.28062 19.655 4.40844 19.818C4.66915 20.1503 4.70687 20.1973 4.78508 20.2877C4.83027 20.34 4.89725 20.4207 4.93394 20.4672C5.02826 20.5867 5.83535 21.3907 5.96223 21.4916C6.02029 21.5378 6.09202 21.5975 6.12164 21.6242C6.1824 21.6791 6.47317 21.9114 6.64841 22.0451C6.79665 22.1582 7.46242 22.6007 7.58171 22.6654C7.63159 22.6924 7.73654 22.7523 7.81492 22.7984C8.83475 23.3982 10.282 23.8994 11.5093 24.0779C11.5642 24.0859 11.6687 24.1025 11.7416 24.1148C12.0944 24.1744 12.0693 24.1236 12.0693 24.7781V25.2422L12.101 25.4094C12.1883 25.8695 12.3612 26.1122 12.738 26.3037C12.8051 26.3377 12.8681 26.3746 12.878 26.3855C12.9057 26.4161 13.5025 26.4161 13.5302 26.3855C13.5401 26.3746 13.603 26.3377 13.6701 26.3037C14.1932 26.038 14.3278 25.7279 14.3386 24.7638C14.3454 24.1641 14.3435 24.1716 14.4901 24.1457C14.7003 24.1085 14.8098 24.0913 14.8879 24.0832C15.1305 24.058 15.9101 23.8863 16.2761 23.7773C16.3516 23.7548 16.4649 23.7212 16.5279 23.7025C16.591 23.6838 16.7145 23.6424 16.8024 23.6106C16.8903 23.5787 17.0311 23.5278 17.1153 23.4974C17.1995 23.4671 17.3207 23.4182 17.3845 23.389C17.4484 23.3597 17.5428 23.3183 17.5944 23.2971C17.8281 23.2007 18.4782 22.8735 18.7288 22.7263C18.984 22.5763 19.6591 22.1246 19.8389 21.9834C19.9289 21.9128 20.0453 21.8222 20.0976 21.7822C20.1498 21.7422 20.2259 21.6794 20.2666 21.6426C20.3073 21.6058 20.388 21.5379 20.446 21.4918C20.581 21.3846 21.3798 20.5852 21.4911 20.4461C21.5375 20.388 21.5974 20.3163 21.6241 20.2867C21.679 20.2259 21.9113 19.9351 22.045 19.7599C22.1581 19.6117 22.6006 18.9459 22.6653 18.8266C22.6923 18.7767 22.7522 18.6718 22.7982 18.5934C22.9529 18.3303 23.2081 17.8088 23.3535 17.4585C23.6174 16.8229 23.7396 16.4555 23.8924 15.8382C23.9704 15.5232 24.0671 15.0411 24.083 14.888C24.0882 14.8387 24.1021 14.7413 24.1141 14.6716C24.1758 14.3124 24.1099 14.3461 24.7636 14.3388C25.2949 14.3328 25.3088 14.3315 25.6029 14.2649C25.8853 14.201 26.1467 13.9792 26.3041 13.6698C26.3383 13.6025 26.3751 13.5396 26.3858 13.5299C26.4157 13.5029 26.4157 12.9055 26.3858 12.8785C26.3751 12.8688 26.3383 12.8059 26.3041 12.7386C26.1147 12.3663 25.8772 12.194 25.4334 12.1065L25.2451 12.0694H24.7794C24.1949 12.0694 24.1733 12.0646 24.1476 11.9294C24.122 11.795 24.0918 11.603 24.0831 11.5204C24.0413 11.1214 23.785 10.0821 23.6185 9.63633C23.5902 9.56071 23.541 9.42282 23.509 9.32993C23.4771 9.23703 23.424 9.10164 23.3911 9.02906C23.3582 8.95648 23.3178 8.86351 23.3014 8.82247C23.2213 8.62189 22.8712 7.92631 22.7262 7.67952C22.5762 7.4243 22.1244 6.74918 21.9833 6.56936C21.9126 6.47937 21.8214 6.36185 21.7805 6.30822C21.7396 6.25458 21.6768 6.17858 21.6408 6.13932C21.6049 6.10005 21.5377 6.02042 21.4915 5.96235C21.3828 5.82564 20.5833 5.02605 20.446 4.91678C20.388 4.87059 20.3073 4.80267 20.2666 4.76585C20.2259 4.72904 20.1498 4.66619 20.0976 4.6262C20.0453 4.5862 19.9289 4.49577 19.8389 4.42525C19.6659 4.28966 18.995 3.83602 18.8255 3.74006C18.7703 3.70882 18.7015 3.66818 18.6724 3.64977C18.5174 3.55143 17.8654 3.22717 17.5482 3.09065C17.464 3.05443 17.35 3.00537 17.2948 2.98165C16.6942 2.72331 15.4467 2.38308 14.8879 2.32524C14.8385 2.32013 14.7411 2.30616 14.6715 2.2942C14.3122 2.23254 14.346 2.29837 14.3386 1.64468C14.3326 1.11341 14.3314 1.09953 14.2648 0.80543C14.2008 0.522934 13.9792 0.261763 13.6701 0.104775C13.603 0.0706979 13.5401 0.0338763 13.5302 0.0229607C13.5025 -0.00765357 12.9057 -0.00765357 12.878 0.0229607ZM12.0237 4.52205C12.0824 4.54423 12.1092 4.58308 12.1499 4.70514C12.5095 5.7845 13.9011 5.7853 14.2562 4.70636C14.3074 4.5509 14.3612 4.49922 14.4571 4.5136C14.4763 4.51647 14.5443 4.52667 14.6081 4.53627C15.3785 4.65196 16.375 4.96974 17.0964 5.32975C17.6131 5.58761 18.3487 6.06168 18.7094 6.36924C18.7471 6.40143 18.8231 6.46363 18.8783 6.50747C19.0927 6.67788 19.7237 7.31027 19.9246 7.5561C20.4592 8.21027 20.9682 9.01616 21.199 9.57399C21.2276 9.64296 21.2707 9.74391 21.2948 9.79828C21.5682 10.4147 21.8315 11.3741 21.8833 11.9432C21.8943 12.0632 21.8634 12.0965 21.6864 12.1555C20.6261 12.5086 20.629 13.8877 21.6908 14.2539C21.9296 14.3362 21.9276 14.3273 21.8271 14.8563C21.7168 15.4369 21.5034 16.1399 21.2948 16.6102C21.2707 16.6645 21.2276 16.7655 21.199 16.8344C20.7914 17.8194 19.7237 19.2303 18.8783 19.9008C18.8231 19.9446 18.7495 20.0049 18.7147 20.035C18.6353 20.1033 18.2841 20.3636 18.1031 20.4882C17.7547 20.7279 17.1378 21.0735 16.8343 21.1992C16.7653 21.2277 16.6644 21.2708 16.61 21.2949C16.0842 21.5282 15.1659 21.7948 14.6451 21.8655C14.6015 21.8714 14.5364 21.8819 14.5005 21.8888C14.3657 21.9146 14.3177 21.8764 14.2545 21.6932C13.8838 20.6181 12.5084 20.6255 12.1494 21.7045C12.0931 21.8737 12.0368 21.9166 11.907 21.8889C11.8772 21.8825 11.8152 21.8723 11.7691 21.8662C11.2521 21.7976 10.3267 21.5294 9.79816 21.2949C9.74378 21.2708 9.6439 21.2281 9.57621 21.2001C9.06652 20.9892 8.12305 20.4053 7.69352 20.035C7.65868 20.0049 7.58505 19.9446 7.52989 19.9008C7.31646 19.7315 6.68492 19.0986 6.48362 18.8523C5.94878 18.1979 5.44608 17.4034 5.21888 16.8533C5.19091 16.7856 5.14644 16.6824 5.12008 16.624C4.87281 16.0768 4.64167 15.2688 4.52589 14.5471C4.49551 14.3577 4.51861 14.3206 4.70583 14.2582C5.53428 13.9821 5.78357 13.0509 5.19242 12.4405C5.05424 12.2979 4.93457 12.2265 4.70583 12.1503C4.51861 12.0879 4.49551 12.0508 4.52589 11.8613C4.63062 11.2085 4.82153 10.5119 5.04897 9.95277C5.0962 9.83665 5.14965 9.70363 5.16776 9.65718C5.37629 9.12194 5.94143 8.22013 6.48756 7.55113C6.68495 7.30932 7.31735 6.67622 7.52989 6.50764C7.58505 6.46388 7.65868 6.40352 7.69352 6.37347C7.77284 6.30509 8.12405 6.04482 8.30511 5.92024C8.6561 5.67875 9.38043 5.27565 9.65706 5.16788C9.7035 5.14978 9.83652 5.09633 9.95264 5.0491C10.4947 4.82861 11.2854 4.60957 11.7992 4.53755C11.8625 4.52867 11.9168 4.51902 11.9197 4.5161C11.929 4.50679 11.993 4.51045 12.0237 4.52205ZM12.8293 7.69516C12.8148 7.69774 12.7673 7.70682 12.7238 7.71534C12.6802 7.72385 12.5867 7.73519 12.516 7.74053C12.1822 7.76574 11.6552 7.90033 11.1408 8.09176C10.5523 8.31076 9.63844 8.92669 9.25783 9.36087C9.21613 9.40845 9.12738 9.50669 9.06061 9.57918C8.78732 9.87591 8.47006 10.3479 8.25464 10.7783C8.00843 11.2702 7.77791 12.0449 7.74005 12.5075C7.73435 12.5772 7.71998 12.6906 7.70814 12.7596C7.68009 12.9228 7.68351 13.5639 7.71309 13.6874C7.72251 13.7266 7.73484 13.8193 7.74048 13.8932C7.81211 14.8306 8.37774 16.0886 9.06061 16.8291C9.12738 16.9015 9.20967 16.992 9.24349 17.0302C9.2773 17.0684 9.33706 17.1281 9.37629 17.163C9.41552 17.1978 9.50685 17.2809 9.57924 17.3477C10.3153 18.0266 11.5829 18.5969 12.5126 18.6676C12.5852 18.6731 12.6826 18.686 12.729 18.6962C12.8012 18.7121 12.8704 18.7148 13.2041 18.7148C13.5378 18.7148 13.607 18.7121 13.6791 18.6962C13.7256 18.686 13.823 18.6731 13.8956 18.6676C13.97 18.662 14.1334 18.6364 14.2703 18.6091C16.4683 18.1701 18.1654 16.4736 18.6087 14.2723C18.6368 14.1327 18.6615 13.9751 18.6674 13.8975C18.6729 13.8239 18.6859 13.7257 18.6961 13.6793C18.7237 13.5539 18.7236 12.8544 18.6961 12.7292C18.6859 12.6827 18.673 12.5877 18.6674 12.518C18.6374 12.1416 18.4959 11.6039 18.2952 11.1034C18.086 10.5821 17.7329 10.0087 17.3691 9.59953C17.3137 9.53727 17.2345 9.44792 17.193 9.40096C17.1516 9.35401 17.0755 9.27779 17.0241 9.23158C16.9727 9.18536 16.8768 9.09938 16.8111 9.04048C16.0573 8.36488 14.8249 7.81664 13.8892 7.74065C13.8162 7.73473 13.7248 7.72226 13.6861 7.71295C13.6181 7.69659 12.9044 7.68176 12.8293 7.69516Z" fill="#ACACAC"/>
</svg>
