<svg width="23" height="23" viewBox="0 0 23 23" fill="none" xmlns="http://www.w3.org/2000/svg">
<path d="M19.4159 4.08043C15.104 -0.230198 8.11396 -0.229163 3.80333 4.0828C-0.507297 8.39477 -0.506262 15.3847 3.80571 19.6954C8.11767 24.006 15.1076 24.005 19.4183 19.693C21.4885 17.6221 22.6512 14.8137 22.6505 11.8855C22.6499 8.95784 21.4864 6.1503 19.4159 4.08043ZM17.2904 16.2264C17.2899 16.2269 17.2894 16.2274 17.2889 16.2279V16.2242L16.7295 16.7798C16.0061 17.5124 14.9526 17.8138 13.9512 17.5747C12.9423 17.3047 11.9832 16.8748 11.1103 16.3015C10.2993 15.7832 9.54775 15.1773 8.86924 14.4946C8.24493 13.8749 7.68406 13.1944 7.19486 12.4633C6.65978 11.6766 6.23626 10.8197 5.93633 9.91679C5.5925 8.85611 5.87743 7.69224 6.67233 6.91032L7.32734 6.2553C7.50945 6.07237 7.80537 6.07173 7.98826 6.25384C7.98873 6.25431 7.98925 6.25479 7.98972 6.2553L10.0578 8.3234C10.2408 8.50552 10.2414 8.80143 10.0593 8.98432C10.0588 8.98479 10.0583 8.98527 10.0578 8.98579L8.84345 10.2002C8.49501 10.5448 8.45119 11.0925 8.74043 11.4881C9.17964 12.0909 9.6657 12.6581 10.194 13.1846C10.783 13.7762 11.4234 14.3143 12.1075 14.7927C12.5029 15.0685 13.0388 15.022 13.3808 14.6823L14.5547 13.49C14.7368 13.3071 15.0327 13.3065 15.2156 13.4886C15.2161 13.4891 15.2165 13.4895 15.217 13.49L17.2889 15.5655C17.4718 15.7476 17.4725 16.0435 17.2904 16.2264Z" fill="#FFE922"/>
</svg>
