<svg width="48" height="47" viewBox="0 0 48 47" fill="none" xmlns="http://www.w3.org/2000/svg">
<path d="M17.2499 36.8305L10.3214 40.6097C9.91485 40.8314 9.54946 41.1039 9.20947 41.401C13.249 44.8069 18.4635 46.8617 24.1608 46.8617C29.8161 46.8617 34.9973 44.8376 39.0254 41.4781C38.6539 41.1644 38.2508 40.8823 37.8039 40.6597L30.3848 36.9505C29.4262 36.4712 28.8207 35.4916 28.8207 34.42V31.5091C29.0292 31.2716 29.2676 30.9667 29.5226 30.6065C30.5337 29.1783 31.2987 27.6072 31.8288 25.9589C32.7804 25.6654 33.4814 24.7865 33.4814 23.742V20.6349C33.4814 19.9514 33.1774 19.3407 32.7051 18.9131V14.4214C32.7051 14.4214 33.6278 7.43164 24.1617 7.43164C14.6956 7.43164 15.6183 14.4214 15.6183 14.4214V18.9131C15.1451 19.3407 14.842 19.9514 14.842 20.6349V23.742C14.842 24.5605 15.2722 25.2807 15.9162 25.6969C16.6926 29.0766 18.7255 31.5091 18.7255 31.5091V34.3481C18.7246 35.3821 18.1586 36.3345 17.2499 36.8305Z" fill="#E7ECED"/>
<path d="M24.5578 0.424356C11.7357 0.205295 1.16295 10.4223 0.94389 23.2444C0.819463 30.5146 4.05981 37.0487 9.21914 41.394C9.55649 41.0996 9.91838 40.8297 10.3206 40.6107L17.249 36.8314C18.1577 36.3355 18.7238 35.383 18.7238 34.3473V31.5082C18.7238 31.5082 16.69 29.0758 15.9145 25.6961C15.2714 25.2799 14.8402 24.5605 14.8402 23.7412V20.634C14.8402 19.9506 15.1443 19.3398 15.6166 18.9122V14.4206C15.6166 14.4206 14.6939 7.4308 24.16 7.4308C33.626 7.4308 32.7033 14.4206 32.7033 14.4206V18.9122C33.1765 19.3398 33.4797 19.9506 33.4797 20.634V23.7412C33.4797 24.7857 32.7787 25.6646 31.8271 25.9581C31.297 27.6063 30.532 29.1774 29.5208 30.6057C29.2658 30.9658 29.0275 31.2708 28.819 31.5082V34.4191C28.819 35.4908 29.4244 36.4713 30.3831 36.9497L37.8022 40.6588C38.2473 40.8814 38.6495 41.1627 39.0202 41.4755C44.0235 37.3028 47.256 31.064 47.376 24.0383C47.5969 11.2162 37.3807 0.643417 24.5578 0.424356Z" fill="#556080"/>
</svg>
