<svg width="22" height="22" viewBox="0 0 22 22" fill="none" xmlns="http://www.w3.org/2000/svg">
<path fill-rule="evenodd" clip-rule="evenodd" d="M0.71875 10.7864C0.71875 4.94871 5.45116 0.216309 11.2889 0.216309C17.1266 0.216309 21.859 4.94871 21.859 10.7864C21.859 16.6241 17.1266 21.3566 11.2889 21.3566C5.45116 21.3566 0.71875 16.6241 0.71875 10.7864ZM11.2888 4.44436C8.95369 4.44436 7.06073 6.33732 7.06073 8.67241C7.06073 11.0075 8.95369 12.9005 11.2888 12.9005C13.6238 12.9005 15.5168 11.0075 15.5168 8.67241C15.5168 6.33732 13.6238 4.44436 11.2888 4.44436ZM16.6918 15.0117C17.4928 15.5276 17.4537 16.6519 16.7243 17.2647C15.2545 18.499 13.3586 19.2425 11.289 19.2425C9.2331 19.2425 7.34849 18.5089 5.88285 17.289C5.1469 16.6764 5.10791 15.5464 5.91239 15.0272C6.16283 14.8656 6.43556 14.7239 6.73156 14.6019C7.92246 14.111 9.44355 13.9575 11.2889 13.9575C13.1435 13.9575 14.6732 14.1011 15.8672 14.5868C16.1655 14.7082 16.4401 14.8497 16.6918 15.0117Z" fill="#FFE922"/>
</svg>
