<svg width="18" height="20" viewBox="0 0 18 20" fill="none" xmlns="http://www.w3.org/2000/svg">
<path d="M13.3073 15.5315C11.5744 15.5315 10.2042 14.121 10.2042 12.4284C10.2042 10.7358 11.6147 9.32525 13.3073 9.32525H16.3298H17.9418V8.92225C17.9418 7.18935 16.5313 5.81914 14.8387 5.81914C12.9446 5.81914 11.0102 5.81914 9.11606 5.81914C7.82645 5.81914 6.53685 5.81914 5.24725 5.81914C4.60244 5.81914 3.95764 5.85944 3.35314 5.77884C1.62023 5.49674 1.01573 3.19963 2.42624 2.11153C3.07104 1.58763 3.87704 1.66823 4.68304 1.66823H12.2998H15.1208C15.7253 1.66823 16.2492 1.99063 16.3701 2.63543C16.4507 3.15933 16.3701 3.72353 16.3701 4.24744C16.3701 5.29524 17.9821 5.29524 17.9821 4.24744C17.9821 3.72353 18.0224 3.19963 17.9821 2.67573C17.9015 1.50703 17.0955 0.459223 15.9671 0.136822C15.2417 -0.0646792 14.3148 0.015921 13.5491 0.015921C10.7684 0.015921 7.98766 0.015921 5.20695 0.015921C4.40094 0.015921 3.47404 -0.0646794 2.66804 0.177121C1.78143 0.418922 1.01573 1.02342 0.57243 1.82943C-0.112673 2.99813 0.00822759 4.44894 0.00822759 5.77884V9.88945V14.0001V15.9345C0.00822759 17.6674 1.41873 19.0376 3.11134 19.0376H14.8387C16.5716 19.0376 17.9418 17.6271 17.9418 15.9345V15.5315H16.3298H13.3073Z" fill="white"/>
</svg>
